<svg id="svg" xmlns="http://www.w3.org/2000/svg" xmlns:xlink="http://www.w3.org/1999/xlink" width="400" height="400" viewBox="0, 0, 400,400"><g id="svgg"><path id="path0" d="M274.600 60.779 C 270.763 60.957,269.138 61.192,268.400 61.678 C 267.850 62.040,266.333 62.465,265.030 62.623 C 263.726 62.781,262.106 63.228,261.430 63.617 C 260.753 64.006,259.435 64.447,258.500 64.597 C 257.565 64.747,256.800 65.027,256.800 65.219 C 256.800 65.411,256.035 65.789,255.100 66.060 C 254.165 66.330,252.987 66.865,252.481 67.248 C 251.976 67.631,251.031 68.061,250.381 68.204 C 249.732 68.347,249.200 68.627,249.200 68.826 C 249.200 69.026,248.615 69.471,247.900 69.816 C 245.602 70.924,244.182 71.799,243.204 72.710 C 242.679 73.200,242.013 73.600,241.725 73.600 C 241.436 73.600,241.200 73.775,241.200 73.990 C 241.200 74.204,240.688 74.644,240.063 74.967 C 237.643 76.219,228.953 85.464,225.783 90.160 C 225.352 90.797,224.684 91.787,224.297 92.360 C 223.911 92.932,223.228 94.165,222.779 95.100 C 222.330 96.035,221.813 96.800,221.631 96.800 C 221.449 96.800,221.189 97.355,221.054 98.032 C 220.918 98.710,220.445 99.725,220.004 100.286 C 219.562 100.848,219.200 101.635,219.200 102.035 C 219.200 102.932,218.377 104.800,217.981 104.800 C 217.822 104.800,217.565 105.655,217.410 106.700 C 217.256 107.745,216.809 109.140,216.416 109.800 C 216.024 110.460,215.596 112.087,215.466 113.415 C 215.336 114.744,214.908 116.544,214.515 117.415 C 213.853 118.882,213.785 121.370,213.600 150.715 C 213.426 178.323,213.322 182.479,212.800 182.809 C 212.439 183.037,202.300 183.190,187.349 183.194 C 166.889 183.199,162.418 183.296,162.046 183.744 C 161.718 184.140,161.623 192.499,161.697 214.444 L 161.800 244.600 187.200 244.800 C 201.170 244.910,212.825 245.146,213.100 245.324 C 213.497 245.581,213.600 261.522,213.600 322.824 L 213.600 400.000 244.600 400.000 L 275.600 400.000 275.600 322.824 C 275.600 261.522,275.703 245.581,276.100 245.324 C 276.375 245.146,288.003 244.910,301.941 244.800 L 327.281 244.600 327.797 243.000 C 328.080 242.120,328.415 239.600,328.540 237.400 C 328.666 235.200,329.133 231.690,329.578 229.600 C 330.023 227.510,330.390 224.688,330.394 223.329 C 330.397 221.971,330.740 219.091,331.156 216.929 C 331.572 214.768,332.028 211.200,332.170 209.000 C 332.311 206.800,332.685 204.100,333.000 203.000 C 333.315 201.900,333.748 198.750,333.962 196.000 C 334.176 193.250,334.644 189.872,335.001 188.493 C 335.358 187.115,335.594 185.405,335.525 184.693 L 335.400 183.400 306.114 183.200 C 279.781 183.020,276.763 182.934,276.178 182.350 C 275.253 181.425,275.261 135.328,276.187 133.400 C 276.504 132.740,276.865 131.548,276.990 130.751 C 277.115 129.955,277.573 128.892,278.008 128.390 C 278.444 127.888,278.800 127.237,278.800 126.942 C 278.800 126.648,279.160 126.182,279.600 125.907 C 280.040 125.632,280.400 125.220,280.400 124.990 C 280.400 124.465,284.488 120.400,285.016 120.400 C 285.232 120.400,285.618 120.063,285.876 119.650 C 286.133 119.238,286.851 118.774,287.472 118.619 C 288.092 118.464,288.896 118.071,289.259 117.744 C 289.621 117.418,290.971 116.999,292.259 116.812 C 293.546 116.626,295.107 116.277,295.726 116.037 C 296.483 115.743,303.233 115.596,316.326 115.587 C 331.885 115.577,335.941 115.468,336.500 115.043 C 337.154 114.546,337.200 112.776,337.200 87.920 L 337.200 61.328 336.181 60.864 C 335.095 60.369,284.924 60.299,274.600 60.779 " stroke="none" fill="#fbfbfb" fill-rule="evenodd"></path><path id="path1" d="M277.600 58.763 C 276.390 58.898,275.169 59.156,274.887 59.336 C 274.605 59.516,272.642 59.827,270.524 60.027 C 268.406 60.228,266.284 60.646,265.808 60.958 C 265.332 61.270,263.925 61.652,262.681 61.807 C 261.386 61.969,260.047 62.412,259.548 62.845 C 259.069 63.260,258.210 63.601,257.639 63.602 C 257.067 63.603,255.880 64.048,255.000 64.590 C 254.120 65.132,253.035 65.581,252.589 65.588 C 252.143 65.594,251.470 65.960,251.093 66.400 C 250.716 66.840,250.091 67.201,249.704 67.202 C 249.317 67.204,247.830 68.013,246.400 69.000 C 244.970 69.987,243.606 70.796,243.370 70.798 C 243.133 70.799,242.517 71.250,242.000 71.800 C 241.483 72.350,240.918 72.800,240.744 72.800 C 240.570 72.800,240.017 73.173,239.514 73.628 C 239.011 74.084,237.820 75.164,236.867 76.028 C 235.914 76.893,235.063 77.600,234.975 77.600 C 234.799 77.600,231.472 81.086,229.820 83.000 C 229.250 83.660,228.428 84.566,227.992 85.014 C 227.556 85.462,227.200 85.949,227.200 86.096 C 227.200 86.243,226.795 86.808,226.300 87.351 C 224.657 89.153,223.600 90.719,223.600 91.349 C 223.600 91.692,223.255 92.157,222.833 92.383 C 222.410 92.609,221.943 93.347,221.795 94.024 C 221.646 94.700,221.283 95.347,220.987 95.460 C 220.691 95.574,220.337 96.177,220.200 96.801 C 220.063 97.424,219.602 98.337,219.175 98.828 C 218.749 99.320,218.400 100.121,218.400 100.607 C 218.400 101.094,218.055 101.931,217.633 102.467 C 217.211 103.004,216.738 104.153,216.582 105.021 C 216.426 105.890,216.062 106.873,215.772 107.207 C 215.482 107.540,215.046 109.063,214.801 110.591 C 214.557 112.119,214.142 113.628,213.879 113.945 C 212.966 115.042,212.746 121.142,212.550 150.791 C 212.402 173.221,212.235 180.657,211.877 180.885 C 211.614 181.051,200.420 181.193,187.000 181.199 C 173.580 181.206,162.188 181.321,161.684 181.456 C 159.569 182.023,159.600 181.529,159.600 214.357 L 159.600 244.755 160.489 245.377 C 161.270 245.925,164.387 246.000,186.260 246.000 C 208.347 246.000,211.213 246.071,211.771 246.629 C 212.338 247.196,212.400 254.733,212.400 323.629 C 212.400 374.276,212.535 400.000,212.800 400.000 C 213.426 400.000,213.347 246.707,212.720 246.080 C 212.357 245.717,206.141 245.600,187.196 245.600 C 167.684 245.600,162.001 245.489,161.463 245.096 C 160.452 244.356,160.392 183.836,161.402 182.827 C 161.956 182.273,164.945 182.190,187.080 182.114 C 204.435 182.054,212.265 181.895,212.566 181.594 C 212.867 181.293,213.062 171.353,213.204 149.080 L 213.408 117.000 214.304 114.885 C 214.797 113.722,215.201 112.192,215.202 111.485 C 215.204 110.778,215.471 109.690,215.796 109.067 C 216.121 108.443,216.579 107.183,216.813 106.267 C 217.047 105.350,217.496 104.060,217.812 103.400 C 218.128 102.740,218.656 101.570,218.985 100.800 C 219.314 100.030,219.748 99.130,219.949 98.800 C 220.150 98.470,220.512 97.750,220.754 97.200 C 220.996 96.650,221.416 95.840,221.687 95.400 C 221.958 94.960,222.619 93.880,223.155 93.000 C 224.549 90.710,226.486 87.888,227.086 87.271 C 227.369 86.981,227.600 86.611,227.600 86.450 C 227.600 85.979,236.799 76.674,239.090 74.827 C 241.318 73.031,246.309 69.600,246.694 69.600 C 246.821 69.600,247.514 69.150,248.236 68.600 C 248.957 68.050,249.804 67.600,250.119 67.600 C 250.434 67.600,251.121 67.277,251.646 66.881 C 252.171 66.486,253.950 65.659,255.600 65.044 C 257.250 64.429,259.147 63.665,259.815 63.346 C 260.484 63.026,262.259 62.508,263.761 62.194 C 265.262 61.880,266.721 61.432,267.002 61.198 C 267.283 60.965,269.288 60.612,271.457 60.414 C 273.626 60.216,277.200 59.853,279.400 59.608 C 285.972 58.877,336.716 59.221,337.209 60.000 C 337.719 60.807,337.719 115.193,337.209 116.000 C 336.883 116.516,333.807 116.633,315.115 116.836 C 302.358 116.974,292.822 117.239,292.000 117.478 C 289.131 118.310,285.082 120.836,282.849 123.186 C 279.843 126.349,279.638 126.612,279.011 128.109 C 278.714 128.819,278.324 129.545,278.146 129.723 C 276.214 131.643,275.333 180.601,277.212 181.606 C 277.776 181.908,286.737 182.032,306.555 182.011 C 331.912 181.984,335.143 182.050,335.603 182.603 C 336.195 183.316,335.926 189.989,335.208 192.400 C 334.978 193.170,334.602 195.955,334.371 198.589 C 334.140 201.222,333.685 204.642,333.359 206.189 C 333.034 207.735,332.598 211.070,332.391 213.600 C 332.184 216.130,331.839 218.920,331.624 219.800 C 331.409 220.680,331.036 223.560,330.795 226.200 C 330.555 228.840,330.110 232.080,329.808 233.400 C 329.505 234.720,329.134 237.666,328.982 239.946 C 328.564 246.251,331.621 245.600,302.433 245.600 C 288.811 245.600,277.381 245.709,277.033 245.843 C 276.270 246.136,276.037 400.000,276.800 400.000 C 277.065 400.000,277.202 374.363,277.205 323.900 C 277.208 282.045,277.319 247.395,277.452 246.900 L 277.693 246.000 302.673 246.000 C 318.252 246.000,327.929 245.852,328.386 245.607 C 329.006 245.276,329.166 244.480,329.414 240.511 C 329.601 237.515,329.919 235.485,330.290 234.919 C 330.676 234.330,330.984 232.174,331.205 228.515 C 331.389 225.482,331.799 222.280,332.118 221.400 C 332.439 220.513,332.817 217.413,332.966 214.446 C 333.125 211.282,333.454 208.665,333.771 208.046 C 334.066 207.471,334.430 204.930,334.579 202.400 C 334.729 199.870,335.200 196.410,335.625 194.711 C 336.283 192.089,336.800 181.974,336.300 181.506 C 336.245 181.455,322.970 181.320,306.800 181.206 L 277.400 181.000 277.288 160.000 C 277.174 138.549,277.486 131.257,278.563 130.180 C 278.878 129.865,279.344 128.976,279.599 128.204 C 279.854 127.432,280.234 126.800,280.444 126.800 C 280.653 126.800,280.945 126.485,281.091 126.100 C 281.413 125.252,285.400 121.200,285.912 121.200 C 286.112 121.200,286.602 120.840,287.000 120.400 C 287.398 119.960,288.122 119.600,288.608 119.600 C 289.094 119.600,290.007 119.195,290.636 118.700 L 291.780 117.800 314.516 117.687 L 337.251 117.575 337.826 116.200 C 338.305 115.052,338.400 110.416,338.400 88.073 C 338.400 60.118,338.340 59.092,336.675 58.646 C 335.522 58.336,280.444 58.446,277.600 58.763 " stroke="none" fill="#7c8cbc" fill-rule="evenodd"></path><path id="path2" d="M278.800 59.627 C 277.370 59.808,274.245 60.140,271.855 60.366 C 269.465 60.592,267.281 60.967,267.000 61.200 C 266.720 61.432,265.262 61.880,263.761 62.194 C 262.259 62.508,260.484 63.026,259.815 63.346 C 259.147 63.665,257.250 64.429,255.600 65.044 C 253.950 65.659,252.171 66.486,251.646 66.881 C 251.121 67.277,250.434 67.600,250.119 67.600 C 249.804 67.600,248.957 68.050,248.236 68.600 C 247.514 69.150,246.821 69.600,246.694 69.600 C 246.309 69.600,241.318 73.031,239.090 74.827 C 236.799 76.674,227.600 85.979,227.600 86.450 C 227.600 86.611,227.369 86.981,227.086 87.271 C 226.486 87.888,224.549 90.710,223.155 93.000 C 222.619 93.880,221.958 94.960,221.687 95.400 C 221.416 95.840,220.996 96.650,220.754 97.200 C 220.512 97.750,220.150 98.470,219.949 98.800 C 219.748 99.130,219.314 100.030,218.985 100.800 C 218.656 101.570,218.128 102.740,217.812 103.400 C 217.496 104.060,217.047 105.350,216.813 106.267 C 216.579 107.183,216.121 108.443,215.796 109.067 C 215.471 109.690,215.204 110.778,215.202 111.485 C 215.201 112.192,214.797 113.722,214.304 114.885 L 213.408 117.000 213.204 149.080 C 213.062 171.353,212.867 181.293,212.566 181.594 C 212.265 181.895,204.435 182.054,187.080 182.114 C 164.945 182.190,161.956 182.273,161.402 182.827 C 160.392 183.836,160.452 244.356,161.463 245.096 C 162.001 245.489,167.690 245.600,187.227 245.600 C 207.784 245.600,212.383 245.697,212.750 246.140 C 213.076 246.533,213.226 267.511,213.300 323.440 L 213.402 400.200 213.501 322.924 C 213.580 261.455,213.498 245.581,213.100 245.324 C 212.825 245.146,201.170 244.910,187.200 244.800 L 161.800 244.600 161.697 214.444 C 161.623 192.499,161.718 184.140,162.046 183.744 C 162.418 183.296,166.889 183.199,187.349 183.194 C 202.300 183.190,212.439 183.037,212.800 182.809 C 213.322 182.479,213.426 178.323,213.600 150.715 C 213.785 121.370,213.853 118.882,214.515 117.415 C 214.908 116.544,215.336 114.744,215.466 113.415 C 215.596 112.087,216.024 110.460,216.416 109.800 C 216.809 109.140,217.256 107.745,217.410 106.700 C 217.565 105.655,217.822 104.800,217.981 104.800 C 218.377 104.800,219.200 102.932,219.200 102.035 C 219.200 101.635,219.562 100.848,220.004 100.286 C 220.445 99.725,220.918 98.710,221.054 98.032 C 221.189 97.355,221.449 96.800,221.631 96.800 C 221.813 96.800,222.330 96.035,222.779 95.100 C 223.228 94.165,223.911 92.932,224.297 92.360 C 224.684 91.787,225.352 90.797,225.783 90.160 C 228.953 85.464,237.643 76.219,240.063 74.967 C 240.688 74.644,241.200 74.204,241.200 73.990 C 241.200 73.775,241.436 73.600,241.725 73.600 C 242.013 73.600,242.679 73.200,243.204 72.710 C 244.182 71.799,245.602 70.924,247.900 69.816 C 248.615 69.471,249.200 69.026,249.200 68.826 C 249.200 68.627,249.732 68.347,250.381 68.204 C 251.031 68.061,251.976 67.631,252.481 67.248 C 252.987 66.865,254.165 66.330,255.100 66.060 C 256.035 65.789,256.800 65.411,256.800 65.219 C 256.800 65.027,257.565 64.747,258.500 64.597 C 259.435 64.447,260.753 64.006,261.430 63.617 C 262.106 63.228,263.726 62.781,265.030 62.623 C 266.333 62.465,267.850 62.045,268.400 61.690 C 270.314 60.453,333.588 59.683,336.181 60.864 L 337.200 61.328 337.200 87.920 C 337.200 112.776,337.154 114.546,336.500 115.043 C 335.941 115.468,331.885 115.577,316.326 115.587 C 303.233 115.596,296.483 115.743,295.726 116.037 C 295.107 116.277,293.546 116.626,292.259 116.812 C 290.971 116.999,289.621 117.418,289.259 117.744 C 288.896 118.071,288.092 118.464,287.472 118.619 C 286.851 118.774,286.133 119.238,285.876 119.650 C 285.618 120.063,285.220 120.400,284.990 120.400 C 284.465 120.400,280.400 124.488,280.400 125.016 C 280.400 125.232,280.040 125.632,279.600 125.907 C 279.160 126.182,278.800 126.648,278.800 126.942 C 278.800 127.237,278.444 127.888,278.008 128.390 C 277.573 128.892,277.115 129.955,276.990 130.751 C 276.865 131.548,276.504 132.740,276.187 133.400 C 275.261 135.328,275.253 181.425,276.178 182.350 C 276.763 182.934,279.781 183.020,306.114 183.200 L 335.400 183.400 335.525 184.693 C 335.594 185.405,335.358 187.115,335.001 188.493 C 334.644 189.872,334.176 193.250,333.962 196.000 C 333.748 198.750,333.315 201.900,333.000 203.000 C 332.685 204.100,332.311 206.800,332.170 209.000 C 332.028 211.200,331.572 214.768,331.156 216.929 C 330.740 219.091,330.397 221.971,330.394 223.329 C 330.390 224.688,330.023 227.510,329.578 229.600 C 329.133 231.690,328.666 235.200,328.540 237.400 C 328.415 239.600,328.080 242.120,327.797 243.000 L 327.281 244.600 301.941 244.800 C 288.003 244.910,276.375 245.146,276.100 245.324 C 275.455 245.741,275.355 400.000,276.000 400.000 C 276.265 400.000,276.400 374.081,276.400 323.043 C 276.400 253.237,276.459 246.063,277.033 245.843 C 277.381 245.709,288.811 245.600,302.433 245.600 C 331.621 245.600,328.564 246.251,328.982 239.946 C 329.134 237.666,329.505 234.720,329.808 233.400 C 330.110 232.080,330.555 228.840,330.795 226.200 C 331.036 223.560,331.409 220.680,331.624 219.800 C 331.839 218.920,332.184 216.130,332.391 213.600 C 332.598 211.070,333.034 207.735,333.359 206.189 C 333.685 204.642,334.140 201.222,334.371 198.589 C 334.602 195.955,334.978 193.170,335.208 192.400 C 335.926 189.989,336.195 183.316,335.603 182.603 C 335.143 182.050,331.912 181.984,306.555 182.011 C 286.737 182.032,277.776 181.908,277.212 181.606 C 275.333 180.601,276.214 131.643,278.146 129.723 C 278.324 129.545,278.714 128.819,279.011 128.109 C 279.638 126.612,279.843 126.349,282.849 123.186 C 285.082 120.836,289.131 118.310,292.000 117.478 C 292.822 117.239,302.358 116.974,315.115 116.836 C 333.807 116.633,336.883 116.516,337.209 116.000 C 337.719 115.193,337.719 60.807,337.209 60.000 C 336.779 59.320,283.909 58.982,278.800 59.627 " stroke="none" fill="#a4accc" fill-rule="evenodd"></path><path id="path3" d="M0.000 200.000 L 0.000 400.000 106.200 400.000 L 212.400 400.000 212.400 323.629 C 212.400 254.733,212.338 247.196,211.771 246.629 C 211.213 246.071,208.347 246.000,186.260 246.000 C 164.387 246.000,161.270 245.925,160.489 245.377 L 159.600 244.755 159.600 214.357 C 159.600 181.529,159.569 182.023,161.684 181.456 C 162.188 181.321,173.580 181.206,187.000 181.199 C 200.420 181.193,211.614 181.051,211.877 180.885 C 212.235 180.657,212.402 173.221,212.550 150.791 C 212.746 121.142,212.966 115.042,213.879 113.945 C 214.142 113.628,214.557 112.119,214.801 110.591 C 215.046 109.063,215.482 107.540,215.772 107.207 C 216.062 106.873,216.426 105.890,216.582 105.021 C 216.738 104.153,217.211 103.004,217.633 102.467 C 218.055 101.931,218.400 101.094,218.400 100.607 C 218.400 100.121,218.749 99.320,219.175 98.828 C 219.602 98.337,220.063 97.424,220.200 96.801 C 220.337 96.177,220.691 95.574,220.987 95.460 C 221.283 95.347,221.646 94.700,221.795 94.024 C 221.943 93.347,222.410 92.609,222.833 92.383 C 223.255 92.157,223.600 91.692,223.600 91.349 C 223.600 90.719,224.657 89.153,226.300 87.351 C 226.795 86.808,227.200 86.243,227.200 86.096 C 227.200 85.949,227.556 85.462,227.992 85.014 C 228.428 84.566,229.250 83.660,229.820 83.000 C 231.472 81.086,234.799 77.600,234.975 77.600 C 235.063 77.600,235.914 76.893,236.867 76.028 C 237.820 75.164,239.011 74.084,239.514 73.628 C 240.017 73.173,240.570 72.800,240.744 72.800 C 240.918 72.800,241.483 72.350,242.000 71.800 C 242.517 71.250,243.133 70.799,243.370 70.798 C 243.606 70.796,244.970 69.987,246.400 69.000 C 247.830 68.013,249.317 67.204,249.704 67.202 C 250.091 67.201,250.716 66.840,251.093 66.400 C 251.470 65.960,252.143 65.594,252.589 65.588 C 253.035 65.581,254.120 65.132,255.000 64.590 C 255.880 64.048,257.067 63.603,257.639 63.602 C 258.210 63.601,259.069 63.260,259.548 62.845 C 260.047 62.412,261.386 61.969,262.681 61.807 C 263.925 61.652,265.332 61.270,265.808 60.958 C 266.284 60.646,268.395 60.229,270.500 60.029 C 272.605 59.830,274.748 59.427,275.263 59.134 C 276.243 58.575,333.458 58.062,336.265 58.587 C 337.224 58.766,337.635 59.125,337.965 60.071 C 338.691 62.154,338.561 114.440,337.826 116.200 L 337.251 117.575 314.516 117.687 L 291.780 117.800 290.636 118.700 C 290.007 119.195,289.094 119.600,288.608 119.600 C 288.122 119.600,287.398 119.960,287.000 120.400 C 286.602 120.840,286.112 121.200,285.912 121.200 C 285.393 121.200,281.200 125.459,281.200 125.986 C 281.200 126.228,280.939 126.525,280.619 126.648 C 280.300 126.770,279.835 127.486,279.587 128.239 C 279.339 128.992,278.878 129.865,278.563 130.180 C 277.486 131.257,277.174 138.549,277.288 160.000 L 277.400 181.000 306.800 181.206 C 322.970 181.320,336.245 181.455,336.300 181.506 C 336.800 181.974,336.283 192.089,335.625 194.711 C 335.200 196.410,334.729 199.870,334.579 202.400 C 334.430 204.930,334.066 207.471,333.771 208.046 C 333.454 208.665,333.125 211.282,332.966 214.446 C 332.817 217.413,332.439 220.513,332.118 221.400 C 331.799 222.280,331.389 225.482,331.205 228.515 C 330.984 232.174,330.676 234.330,330.290 234.919 C 329.919 235.485,329.601 237.515,329.414 240.511 C 329.166 244.480,329.006 245.276,328.386 245.607 C 327.929 245.852,318.252 246.000,302.673 246.000 L 277.693 246.000 277.452 246.900 C 277.319 247.395,277.208 282.045,277.205 323.900 L 277.200 400.000 338.600 400.000 L 400.000 400.000 400.000 200.000 L 400.000 0.000 200.000 0.000 L 0.000 0.000 0.000 200.000 " stroke="none" fill="#3c549c" fill-rule="evenodd"></path></g></svg>