<svg id="svg" xmlns="http://www.w3.org/2000/svg" xmlns:xlink="http://www.w3.org/1999/xlink" width="400" height="400" viewBox="0, 0, 400,400"><g id="svgg"><path id="path0" d="M165.000 53.620 C 136.764 54.055,126.317 54.922,115.101 57.759 C 81.748 66.196,60.589 90.432,55.600 125.913 C 52.484 148.069,52.928 251.913,56.233 274.200 C 62.102 313.771,86.980 338.791,126.000 344.362 C 137.344 345.981,145.613 346.201,194.600 346.185 C 239.550 346.171,250.783 345.948,266.200 344.765 C 310.418 341.373,338.320 316.114,344.369 274.000 C 347.328 253.405,347.755 149.741,344.971 128.000 C 339.689 86.744,314.266 60.890,273.600 55.420 C 259.263 53.491,217.884 52.806,165.000 53.620 M250.558 80.413 C 267.834 81.071,275.849 82.182,284.133 85.065 C 304.446 92.136,315.857 107.884,318.577 132.600 C 320.807 152.860,321.089 250.255,318.970 268.000 C 315.268 298.992,298.788 315.600,268.000 319.365 C 250.373 321.521,146.470 321.247,130.122 319.002 C 101.324 315.047,84.951 298.844,81.011 270.400 C 78.510 252.343,79.088 147.258,81.787 129.288 C 86.140 100.304,102.345 85.034,132.600 81.405 C 143.445 80.104,224.547 79.422,250.558 80.413 M275.400 104.416 C 261.067 107.354,255.829 124.556,266.263 134.424 C 276.097 143.725,292.533 138.752,295.576 125.555 C 298.296 113.755,287.095 102.018,275.400 104.416 M189.594 125.377 C 139.424 132.569,110.793 186.165,132.646 231.981 C 159.742 288.791,240.851 288.511,267.981 231.514 C 293.340 178.234,248.107 116.988,189.594 125.377 M207.602 151.778 C 243.901 157.250,261.426 200.317,239.332 229.755 C 216.658 259.967,169.721 254.308,154.739 219.556 C 139.615 184.477,169.589 146.047,207.602 151.778 " stroke="none" fill="#fbf9fa" fill-rule="evenodd"></path><path id="path1" d="M370.952 16.952 C 371.005 17.313,371.250 17.810,371.496 18.056 C 371.827 18.387,371.919 18.333,371.848 17.848 C 371.795 17.487,371.550 16.990,371.304 16.744 C 370.973 16.413,370.881 16.467,370.952 16.952 M372.709 18.037 C 372.975 18.387,373.107 18.759,373.003 18.864 C 372.898 18.969,373.483 19.672,374.302 20.427 C 375.122 21.182,375.387 21.337,374.893 20.770 C 374.398 20.204,374.084 19.650,374.195 19.539 C 374.306 19.427,373.908 18.901,373.311 18.368 C 372.713 17.836,372.442 17.687,372.709 18.037 M19.375 25.700 L 18.200 27.000 19.500 25.825 C 20.215 25.179,20.800 24.594,20.800 24.525 C 20.800 24.216,20.470 24.488,19.375 25.700 M378.035 25.042 C 378.298 25.359,378.611 25.522,378.729 25.404 C 378.848 25.286,379.453 25.676,380.074 26.271 C 381.559 27.693,382.876 27.958,381.574 26.572 C 381.073 26.039,380.574 25.693,380.464 25.802 C 380.355 25.912,379.927 25.696,379.513 25.322 C 378.529 24.431,377.341 24.206,378.035 25.042 M382.423 29.028 C 382.680 29.338,383.062 29.485,383.272 29.356 C 383.738 29.068,383.392 28.675,382.566 28.554 C 382.084 28.483,382.054 28.583,382.423 29.028 M388.254 36.313 C 387.956 36.794,388.642 37.730,389.370 37.837 C 389.719 37.888,389.901 37.763,389.774 37.558 C 389.648 37.354,389.347 37.309,389.104 37.459 C 388.823 37.633,388.754 37.496,388.915 37.078 C 389.175 36.400,388.607 35.741,388.254 36.313 M390.354 39.233 C 390.025 40.436,390.129 41.525,390.558 41.361 C 391.081 41.160,391.159 39.825,390.675 39.341 C 390.524 39.190,390.379 39.142,390.354 39.233 M391.765 43.683 C 391.940 45.184,392.105 45.306,393.029 44.616 C 393.760 44.069,393.749 44.052,392.800 44.270 C 391.816 44.496,391.813 44.489,392.600 43.820 C 393.040 43.447,393.144 43.274,392.832 43.436 C 392.432 43.644,392.332 43.554,392.494 43.132 C 392.629 42.781,392.498 42.533,392.177 42.533 C 391.811 42.533,391.675 42.913,391.765 43.683 M393.900 46.676 C 393.145 46.873,392.904 47.666,393.650 47.500 C 393.898 47.445,394.191 47.650,394.302 47.956 C 394.438 48.331,394.335 48.407,393.984 48.190 C 393.606 47.956,393.537 48.059,393.732 48.567 C 393.879 48.951,394.000 49.430,394.000 49.630 C 394.000 49.831,394.355 49.941,394.790 49.874 C 395.674 49.740,396.385 49.200,395.679 49.200 C 395.420 49.200,395.335 48.914,395.481 48.534 C 395.667 48.048,395.592 47.958,395.200 48.200 C 394.805 48.444,394.733 48.351,394.927 47.845 C 395.105 47.382,395.040 47.252,394.727 47.445 C 394.418 47.636,394.349 47.510,394.519 47.066 C 394.660 46.700,394.736 46.421,394.687 46.446 C 394.639 46.472,394.285 46.575,393.900 46.676 M396.168 51.700 C 395.891 52.571,395.872 52.575,395.569 51.800 C 395.273 51.042,395.255 51.047,395.228 51.897 C 395.207 52.572,395.396 52.765,395.990 52.674 C 396.874 52.540,397.585 52.000,396.879 52.000 C 396.629 52.000,396.529 51.730,396.655 51.400 C 396.782 51.070,396.788 50.800,396.670 50.800 C 396.551 50.800,396.325 51.205,396.168 51.700 M289.200 52.426 C 288.210 52.609,285.960 52.669,284.200 52.558 C 281.167 52.367,280.569 52.846,283.227 53.338 C 283.762 53.437,284.650 53.704,285.200 53.931 C 285.750 54.159,286.740 54.477,287.400 54.640 C 288.948 55.020,289.159 55.079,289.400 55.200 C 289.510 55.255,289.735 55.330,289.900 55.366 C 291.012 55.610,295.346 57.514,299.600 59.627 C 326.955 73.218,342.269 96.666,345.561 130.000 C 347.677 151.428,347.103 256.764,344.778 273.741 C 340.816 302.668,326.129 324.813,302.618 337.311 C 300.188 338.603,298.650 339.551,299.200 339.418 C 299.750 339.286,301.190 338.927,302.400 338.622 C 305.961 337.723,307.712 337.496,307.419 337.970 C 307.261 338.225,307.403 338.297,307.779 338.153 C 308.213 337.986,308.400 338.156,308.400 338.715 C 308.400 339.494,310.097 343.775,311.367 346.200 C 311.712 346.860,311.996 347.700,311.998 348.067 C 311.999 348.434,312.383 349.604,312.851 350.667 C 313.990 353.255,314.809 356.718,315.201 360.600 C 315.490 363.465,316.107 365.828,317.185 368.200 C 318.546 371.194,320.400 381.841,320.400 386.658 C 320.400 387.547,320.731 389.248,321.137 390.437 C 321.542 391.627,321.827 393.225,321.770 393.989 C 321.714 394.753,321.820 395.663,322.006 396.011 C 322.195 396.365,322.183 396.897,321.978 397.222 C 321.777 397.540,321.609 397.665,321.606 397.500 C 321.603 397.335,321.266 397.515,320.857 397.900 C 320.449 398.285,320.134 398.780,320.157 399.000 C 320.181 399.220,319.975 399.355,319.700 399.300 C 319.425 399.245,319.200 399.359,319.200 399.553 C 319.200 399.747,322.980 399.923,327.600 399.944 C 333.985 399.972,336.001 399.863,336.006 399.491 C 336.010 399.185,336.123 399.151,336.306 399.400 C 336.830 400.113,338.145 400.090,338.679 399.359 C 338.966 398.968,339.200 398.861,339.200 399.124 C 339.200 399.386,339.391 399.600,339.624 399.600 C 339.857 399.600,339.924 399.401,339.774 399.157 C 339.587 398.855,339.787 398.805,340.400 399.000 C 340.971 399.181,341.208 399.137,341.050 398.880 C 340.896 398.631,341.133 398.562,341.662 398.700 C 342.215 398.845,342.431 398.773,342.262 398.500 C 342.093 398.228,342.309 398.156,342.862 398.300 C 343.415 398.445,343.631 398.373,343.462 398.100 C 343.293 397.828,343.509 397.756,344.062 397.900 C 344.709 398.070,344.843 397.993,344.597 397.595 C 344.358 397.209,344.450 397.134,344.934 397.319 C 345.801 397.652,346.869 397.236,346.536 396.696 C 346.384 396.450,346.469 396.395,346.742 396.564 C 347.396 396.968,348.868 396.434,348.544 395.909 C 348.395 395.668,348.461 395.590,348.692 395.733 C 349.254 396.080,351.656 395.215,351.379 394.766 C 351.258 394.570,351.467 394.528,351.845 394.673 C 352.307 394.850,352.438 394.785,352.245 394.473 C 352.052 394.160,352.182 394.095,352.645 394.273 C 353.107 394.450,353.238 394.385,353.045 394.073 C 352.852 393.760,352.982 393.695,353.445 393.873 C 353.907 394.050,354.038 393.985,353.845 393.673 C 353.652 393.360,353.782 393.295,354.245 393.473 C 354.707 393.650,354.838 393.585,354.645 393.273 C 354.452 392.960,354.582 392.895,355.045 393.073 C 355.507 393.250,355.638 393.185,355.445 392.873 C 355.252 392.560,355.382 392.495,355.845 392.673 C 356.347 392.865,356.444 392.794,356.204 392.406 C 355.988 392.057,356.031 391.972,356.330 392.157 C 356.909 392.514,358.499 391.683,358.190 391.185 C 358.059 390.972,358.257 390.924,358.645 391.073 C 359.147 391.265,359.244 391.194,359.004 390.806 C 358.784 390.451,358.831 390.372,359.145 390.566 C 359.690 390.903,362.503 389.290,362.207 388.811 C 362.098 388.635,362.322 388.515,362.704 388.545 C 363.087 388.575,363.357 388.381,363.305 388.114 C 363.250 387.835,363.461 387.725,363.803 387.856 C 364.129 387.981,364.279 388.273,364.136 388.504 C 363.990 388.740,364.067 388.806,364.314 388.653 C 364.554 388.505,364.682 388.026,364.598 387.590 C 364.468 386.913,364.561 386.858,365.228 387.215 C 365.823 387.534,365.986 387.510,365.906 387.117 C 365.847 386.830,366.123 386.627,366.527 386.660 C 366.926 386.693,367.153 386.620,367.030 386.497 C 366.750 386.217,367.568 385.200,368.073 385.200 C 368.279 385.200,368.318 385.425,368.159 385.700 C 367.992 385.990,368.024 386.060,368.236 385.867 C 368.436 385.683,368.600 385.373,368.600 385.178 C 368.600 384.800,375.415 378.800,375.845 378.800 C 375.984 378.800,375.861 379.115,375.571 379.500 C 375.281 379.885,376.069 379.216,377.322 378.014 C 379.442 375.979,380.377 374.858,379.000 376.000 C 378.101 376.746,378.276 375.836,379.191 375.009 C 379.625 374.615,379.868 374.109,379.729 373.885 C 379.590 373.660,379.664 373.592,379.893 373.734 C 380.122 373.875,380.530 373.725,380.800 373.400 C 381.070 373.075,381.430 372.895,381.600 373.000 C 381.770 373.105,382.155 372.889,382.455 372.519 C 382.830 372.056,382.844 371.940,382.500 372.147 C 382.225 372.312,382.000 372.279,382.000 372.073 C 382.000 371.636,382.849 370.868,383.333 370.867 C 383.517 370.867,383.787 370.733,383.933 370.569 C 384.080 370.406,383.975 370.401,383.700 370.559 C 382.861 371.042,383.143 370.193,384.130 369.266 C 384.641 368.786,385.210 368.529,385.394 368.696 C 385.578 368.863,385.601 368.779,385.446 368.509 C 385.137 367.971,386.747 365.520,387.218 365.811 C 387.379 365.910,387.485 365.678,387.455 365.296 C 387.425 364.913,387.604 364.638,387.853 364.684 C 388.102 364.731,388.282 364.465,388.253 364.094 C 388.224 363.723,388.410 363.415,388.667 363.410 C 388.923 363.404,389.283 363.236,389.467 363.036 C 389.663 362.821,389.574 362.803,389.248 362.992 C 388.868 363.212,388.759 363.138,388.898 362.756 C 389.009 362.450,389.316 362.249,389.580 362.310 C 389.844 362.370,389.948 362.239,389.811 362.018 C 389.450 361.433,390.361 359.929,390.882 360.251 C 391.146 360.414,391.211 360.341,391.043 360.070 C 390.686 359.491,391.517 357.901,392.015 358.210 C 392.228 358.341,392.276 358.143,392.127 357.755 C 391.950 357.293,392.015 357.162,392.327 357.355 C 392.640 357.548,392.705 357.418,392.527 356.955 C 392.335 356.453,392.406 356.356,392.794 356.596 C 393.133 356.806,393.228 356.768,393.057 356.492 C 392.691 355.900,393.619 353.965,394.120 354.274 C 394.342 354.411,394.405 354.332,394.261 354.098 C 393.915 353.538,394.383 352.342,394.837 352.623 C 395.032 352.743,395.072 352.533,394.927 352.155 C 394.735 351.653,394.806 351.556,395.194 351.796 C 395.525 352.001,395.627 351.968,395.467 351.708 C 395.035 351.009,396.034 348.623,396.490 349.261 C 396.783 349.671,396.823 349.635,396.655 349.111 C 396.386 348.272,397.150 345.922,397.602 346.201 C 397.780 346.311,397.824 346.013,397.700 345.538 C 397.555 344.985,397.627 344.769,397.900 344.938 C 398.172 345.107,398.244 344.891,398.100 344.338 C 397.932 343.695,398.008 343.558,398.399 343.799 C 398.743 344.012,398.827 343.968,398.643 343.669 C 398.488 343.419,398.730 341.977,399.181 340.464 C 400.121 337.307,400.519 83.316,399.586 81.574 C 399.358 81.148,399.328 80.800,399.519 80.800 C 399.710 80.800,399.867 80.522,399.867 80.183 C 399.867 79.794,399.641 79.652,399.256 79.800 C 398.711 80.009,398.710 79.957,399.248 79.317 C 399.579 78.923,399.839 78.350,399.825 78.045 C 399.798 77.436,397.600 77.024,397.600 77.627 C 397.600 77.832,397.870 78.000,398.200 78.000 C 398.530 78.000,398.800 78.180,398.800 78.400 C 398.800 79.029,397.711 78.867,397.455 78.200 C 397.329 77.870,397.340 77.300,397.481 76.934 C 397.666 76.452,397.591 76.359,397.207 76.595 C 396.884 76.795,396.508 76.695,396.239 76.336 C 395.330 75.123,393.317 74.783,392.706 75.740 C 392.544 75.993,392.409 75.641,392.406 74.958 C 392.399 73.505,388.439 72.001,384.600 71.993 C 382.036 71.988,380.800 71.650,380.800 70.953 C 380.800 70.649,380.455 70.400,380.033 70.400 C 378.863 70.400,378.000 69.972,378.000 69.392 C 378.000 69.087,377.293 68.758,376.300 68.599 C 373.795 68.200,368.800 66.723,368.800 66.381 C 368.800 66.219,367.012 65.958,364.827 65.802 C 361.998 65.599,360.792 65.357,360.640 64.959 C 360.521 64.650,359.882 64.400,359.213 64.400 C 358.546 64.400,358.000 64.220,358.000 64.000 C 358.000 63.780,357.640 63.600,357.200 63.600 C 356.760 63.600,356.400 63.420,356.400 63.200 C 356.400 62.980,356.145 62.800,355.833 62.800 C 355.522 62.800,355.204 62.612,355.127 62.382 C 354.984 61.952,350.534 61.123,344.230 60.353 C 342.258 60.112,340.409 59.666,340.101 59.358 C 339.794 59.051,339.271 58.800,338.939 58.800 C 338.607 58.800,336.235 58.161,333.667 57.379 C 329.614 56.145,328.263 55.927,323.400 55.719 C 320.320 55.588,317.687 55.308,317.549 55.097 C 317.412 54.886,316.467 54.619,315.449 54.504 C 314.432 54.390,313.600 54.115,313.600 53.894 C 313.600 53.646,312.899 53.587,311.779 53.741 C 310.456 53.922,309.693 53.818,308.994 53.359 C 308.180 52.826,307.799 52.804,306.537 53.221 C 304.894 53.763,295.212 53.452,294.817 52.845 C 294.469 52.310,291.158 52.063,289.200 52.426 M396.700 53.232 C 396.315 53.456,396.000 53.900,396.000 54.217 C 396.000 54.965,397.701 54.739,397.909 53.963 C 398.029 53.520,397.962 53.527,397.596 54.000 C 397.210 54.497,397.164 54.446,397.328 53.700 C 397.436 53.205,397.497 52.805,397.463 52.812 C 397.428 52.819,397.085 53.008,396.700 53.232 M397.500 55.076 C 397.115 55.176,396.800 55.410,396.800 55.594 C 396.800 56.094,398.132 55.804,398.312 55.265 C 398.397 55.009,398.407 54.821,398.333 54.846 C 398.260 54.872,397.885 54.975,397.500 55.076 M397.384 56.827 C 397.239 57.061,397.228 57.361,397.360 57.493 C 397.492 57.625,397.600 57.513,397.600 57.243 C 397.600 56.973,397.768 56.856,397.972 56.983 C 398.177 57.109,398.458 57.030,398.596 56.807 C 398.734 56.583,398.577 56.400,398.247 56.400 C 397.917 56.400,397.529 56.592,397.384 56.827 M398.651 58.913 C 397.996 59.392,398.004 59.430,398.775 59.488 C 399.255 59.524,399.600 59.310,399.600 58.975 C 399.600 58.272,399.534 58.267,398.651 58.913 M398.400 60.448 C 398.400 60.668,398.580 60.736,398.800 60.600 C 399.310 60.285,399.323 60.917,398.817 61.423 C 398.576 61.664,398.573 62.028,398.811 62.403 C 399.085 62.838,399.189 62.858,399.194 62.476 C 399.197 62.188,399.354 62.048,399.542 62.164 C 399.730 62.280,399.865 61.876,399.842 61.266 C 399.803 60.224,398.400 59.429,398.400 60.448 M398.559 75.667 C 398.264 76.143,398.751 76.800,399.399 76.800 C 399.702 76.800,399.925 76.470,399.895 76.067 C 399.839 75.324,398.937 75.054,398.559 75.667 M159.200 81.632 C 126.337 83.015,114.636 85.610,103.169 94.061 C 83.377 108.646,78.904 127.957,80.388 192.400 C 80.855 212.659,81.399 227.963,81.537 224.725 C 81.702 220.867,83.451 216.013,84.453 216.633 C 84.644 216.751,84.800 216.657,84.800 216.424 C 84.800 216.191,85.256 216.000,85.814 216.000 C 86.372 216.000,87.227 215.746,87.714 215.434 C 88.244 215.096,90.180 214.782,92.538 214.652 C 94.704 214.533,96.731 214.223,97.043 213.964 C 97.356 213.705,99.634 213.346,102.106 213.166 C 104.578 212.986,107.860 212.659,109.400 212.438 C 111.943 212.073,115.647 211.968,119.736 212.144 C 120.735 212.187,121.469 212.479,121.836 212.981 C 122.146 213.406,122.407 213.584,122.416 213.376 C 122.437 212.874,123.782 215.546,125.246 219.000 C 125.899 220.540,126.332 221.350,126.210 220.800 C 114.990 170.496,150.188 124.931,200.200 125.017 C 259.548 125.119,294.736 188.333,264.265 240.107 C 259.796 247.700,251.726 256.781,245.000 261.784 C 243.240 263.094,241.620 264.321,241.400 264.512 C 241.180 264.703,242.904 263.859,245.232 262.636 C 249.791 260.241,252.800 259.026,252.800 259.582 C 252.800 259.773,253.109 259.884,253.486 259.828 C 253.883 259.770,254.937 260.568,255.983 261.717 C 256.979 262.812,258.950 264.808,260.363 266.154 C 266.300 271.809,272.551 278.315,275.778 282.200 C 277.058 283.740,278.497 285.455,278.977 286.012 C 285.395 293.456,294.074 307.200,292.357 307.200 C 292.135 307.200,292.058 307.371,292.188 307.580 C 292.509 308.100,290.056 310.282,287.071 312.131 C 284.334 313.827,285.061 313.734,289.649 311.802 C 306.044 304.896,316.050 289.365,318.585 266.889 C 320.035 254.034,320.542 156.481,319.245 140.000 C 316.441 104.382,300.982 86.732,269.000 82.634 C 258.608 81.303,183.349 80.616,159.200 81.632 M282.586 104.213 C 291.216 106.461,297.389 115.441,296.002 123.731 C 293.006 141.640,269.928 145.181,262.293 128.903 C 256.091 115.681,268.527 100.551,282.586 104.213 M52.062 114.004 C 51.107 114.868,49.712 115.797,48.962 116.068 C 48.213 116.339,47.600 116.705,47.600 116.880 C 47.600 117.056,46.970 117.200,46.200 117.200 C 45.257 117.200,44.800 117.385,44.800 117.768 C 44.800 118.081,44.260 118.455,43.600 118.600 C 42.940 118.745,42.400 119.119,42.400 119.432 C 42.400 119.744,42.040 120.000,41.600 120.000 C 41.156 120.000,40.800 120.267,40.800 120.600 C 40.800 120.930,40.468 121.200,40.062 121.200 C 39.656 121.200,38.981 121.581,38.562 122.047 C 38.143 122.512,35.550 124.617,32.800 126.723 C 30.050 128.829,26.810 131.496,25.600 132.649 C 22.271 135.822,21.662 136.313,18.200 138.617 C 16.440 139.789,12.930 142.658,10.400 144.993 C 7.870 147.328,5.395 149.405,4.900 149.609 C 4.358 149.833,3.987 150.342,3.968 150.890 C 3.951 151.391,3.844 151.568,3.730 151.284 C 3.581 150.913,3.307 151.016,2.761 151.645 C 2.343 152.127,2.000 152.315,2.000 152.061 C 2.000 151.301,1.065 151.732,0.514 152.746 C -0.277 154.202,-0.241 250.978,0.551 250.674 C 0.854 250.558,1.304 250.664,1.551 250.911 C 1.883 251.243,2.000 251.165,2.000 250.613 C 2.000 250.203,2.109 249.976,2.243 250.109 C 2.376 250.243,2.846 250.016,3.286 249.605 C 3.727 249.195,4.338 248.955,4.644 249.072 C 4.950 249.190,5.200 249.086,5.200 248.843 C 5.200 248.599,5.389 248.400,5.620 248.400 C 5.991 248.400,10.689 245.349,11.200 244.776 C 11.310 244.652,12.570 243.874,14.000 243.048 C 17.106 241.251,17.215 241.186,19.934 239.513 C 21.108 238.791,22.394 238.013,22.792 237.784 C 23.189 237.556,23.796 237.136,24.139 236.851 C 25.001 236.135,27.668 234.800,28.236 234.800 C 28.492 234.800,28.926 234.530,29.200 234.200 C 29.474 233.870,30.136 233.600,30.671 233.600 C 31.982 233.600,34.659 232.343,36.556 230.835 C 37.411 230.156,38.511 229.600,39.001 229.600 C 39.491 229.600,41.132 228.987,42.646 228.237 C 44.822 227.160,48.772 225.600,49.323 225.600 C 49.777 225.600,50.919 228.776,51.338 231.202 L 51.856 234.200 52.139 226.000 C 52.769 207.738,53.174 179.621,53.150 155.722 C 53.137 141.819,53.212 130.299,53.317 130.122 C 53.843 129.234,54.231 115.136,53.770 113.637 C 53.543 112.898,53.596 112.750,53.999 112.999 C 54.346 113.214,54.427 113.168,54.238 112.862 C 53.879 112.281,54.090 112.171,52.062 114.004 M190.314 152.368 C 164.742 157.932,148.394 181.495,152.546 206.803 C 153.534 212.825,156.812 221.375,159.368 224.600 L 160.002 225.400 159.739 224.600 C 159.594 224.160,159.345 223.620,159.185 223.400 C 158.642 222.654,157.578 217.158,157.884 216.678 C 158.051 216.415,158.199 216.020,158.212 215.800 C 158.240 215.341,158.405 215.366,160.652 216.171 C 161.561 216.497,163.769 216.947,165.559 217.171 C 167.349 217.396,169.162 217.766,169.589 217.994 C 170.015 218.222,171.496 218.521,172.882 218.659 C 174.267 218.797,175.580 219.042,175.800 219.203 C 176.020 219.364,176.920 219.616,177.800 219.763 C 180.023 220.134,184.014 221.446,187.800 223.051 C 189.560 223.796,191.225 224.405,191.500 224.403 C 191.775 224.401,192.000 224.568,192.000 224.773 C 192.000 224.978,192.405 225.263,192.900 225.405 C 193.395 225.547,194.430 225.931,195.200 226.259 C 195.970 226.586,196.960 227.006,197.400 227.191 C 197.840 227.377,199.460 227.926,201.000 228.412 C 202.540 228.898,204.540 229.634,205.444 230.048 C 206.348 230.461,207.518 230.814,208.044 230.831 C 208.570 230.849,209.810 231.377,210.800 232.005 C 211.790 232.633,214.220 233.990,216.200 235.020 C 221.860 237.966,222.400 238.350,222.400 239.433 C 222.400 239.965,222.263 240.400,222.096 240.400 C 221.929 240.400,221.267 240.887,220.624 241.482 C 219.982 242.078,218.094 243.243,216.429 244.072 C 212.606 245.975,213.340 246.021,218.115 244.178 C 261.823 227.307,257.382 164.973,211.600 152.725 C 207.092 151.519,195.136 151.319,190.314 152.368 M378.400 376.525 C 378.400 376.594,377.815 377.179,377.100 377.825 L 375.800 379.000 376.975 377.700 C 378.070 376.488,378.400 376.216,378.400 376.525 " stroke="none" fill="#d33679" fill-rule="evenodd"></path><path id="path2" d="M277.700 139.476 C 278.085 139.576,278.715 139.576,279.100 139.476 C 279.485 139.375,279.170 139.293,278.400 139.293 C 277.630 139.293,277.315 139.375,277.700 139.476 M146.589 146.900 L 143.800 149.800 146.700 147.011 C 148.295 145.477,149.600 144.172,149.600 144.111 C 149.600 143.817,149.180 144.206,146.589 146.900 M197.500 151.496 C 198.875 151.574,201.125 151.574,202.500 151.496 C 203.875 151.418,202.750 151.354,200.000 151.354 C 197.250 151.354,196.125 151.418,197.500 151.496 M225.000 158.207 C 225.440 158.566,226.160 159.035,226.600 159.251 L 227.400 159.644 226.600 158.993 C 226.160 158.634,225.440 158.165,225.000 157.949 L 224.200 157.556 225.000 158.207 M227.600 159.725 C 227.600 159.824,228.261 160.409,229.068 161.025 C 229.876 161.641,230.411 161.941,230.256 161.691 C 229.940 161.179,227.600 159.447,227.600 159.725 M170.385 161.229 L 169.000 162.458 170.500 161.381 C 171.826 160.430,172.257 160.000,171.885 160.000 C 171.822 160.000,171.147 160.553,170.385 161.229 M231.159 162.520 C 231.806 163.334,235.600 166.562,235.600 166.297 C 235.600 166.200,234.475 165.151,233.100 163.968 C 231.725 162.784,230.852 162.132,231.159 162.520 M165.326 165.700 C 134.403 197.033,156.250 249.416,200.200 249.319 C 233.764 249.245,257.209 216.441,246.531 184.493 C 245.466 181.306,242.951 176.012,241.832 174.600 C 241.483 174.160,241.993 175.330,242.964 177.200 C 265.670 220.894,215.698 266.622,174.386 239.953 C 148.569 223.287,144.326 187.743,165.545 165.900 C 167.415 163.975,168.863 162.400,168.764 162.400 C 168.664 162.400,167.117 163.885,165.326 165.700 M236.812 168.200 C 237.581 169.080,238.824 170.655,239.574 171.700 C 240.323 172.745,241.006 173.600,241.091 173.600 C 241.547 173.600,237.649 168.499,236.355 167.400 C 235.836 166.960,236.042 167.320,236.812 168.200 M267.634 167.000 C 267.634 167.220,267.978 168.030,268.400 168.800 C 268.822 169.570,269.166 170.020,269.166 169.800 C 269.166 169.580,268.822 168.770,268.400 168.000 C 267.978 167.230,267.634 166.780,267.634 167.000 M130.865 169.817 C 130.195 171.288,130.323 171.602,131.047 170.265 C 131.386 169.640,131.588 169.054,131.496 168.963 C 131.405 168.871,131.121 169.256,130.865 169.817 M320.098 204.169 C 319.899 272.582,318.517 283.251,308.067 297.061 C 293.744 315.989,278.206 319.455,212.400 318.399 C 120.455 316.925,112.649 315.794,98.090 301.842 C 85.554 289.830,82.548 278.584,81.613 240.200 C 79.858 168.199,79.832 167.731,79.477 201.800 C 79.090 238.908,79.548 258.968,81.044 270.400 C 84.736 298.611,101.334 315.049,130.122 319.002 C 146.470 321.247,250.373 321.521,268.000 319.365 C 295.373 316.018,311.877 302.044,317.347 277.584 C 319.873 266.289,320.507 250.493,320.323 203.400 L 320.195 170.600 320.098 204.169 M128.813 175.079 C 106.254 237.235,167.615 295.956,228.979 270.936 C 256.941 259.535,276.916 228.311,275.510 198.200 L 275.361 195.000 275.280 198.858 C 274.257 247.921,232.164 282.478,184.977 272.996 C 141.381 264.235,114.850 218.162,129.010 175.806 C 130.673 170.833,130.536 170.331,128.813 175.079 M53.089 188.800 C 51.835 233.969,51.800 243.082,52.812 261.626 C 54.190 286.877,59.882 303.368,73.354 321.137 C 80.000 329.904,80.024 330.065,74.800 331.001 C 72.458 331.420,63.022 334.522,61.209 335.468 C 60.654 335.758,59.885 335.996,59.501 335.998 C 58.259 336.002,50.280 338.807,47.545 340.200 C 46.085 340.945,43.205 342.202,41.145 342.995 C 39.085 343.788,36.352 345.059,35.071 345.818 C 33.791 346.578,32.654 347.200,32.546 347.200 C 31.949 347.200,27.598 349.441,25.536 350.811 C 24.220 351.685,22.998 352.400,22.821 352.400 C 22.643 352.400,22.274 352.670,22.000 353.000 C 21.726 353.330,21.096 353.600,20.600 353.600 C 20.104 353.600,19.470 353.874,19.192 354.210 C 18.914 354.545,18.603 354.736,18.501 354.634 C 18.399 354.532,17.876 354.888,17.339 355.424 C 16.803 355.961,16.192 356.400,15.982 356.400 C 15.772 356.400,15.600 356.681,15.600 357.024 C 15.600 357.367,15.420 357.536,15.200 357.400 C 14.980 357.264,14.800 357.433,14.800 357.776 C 14.800 358.119,14.608 358.400,14.373 358.400 C 14.138 358.400,14.052 358.735,14.182 359.144 C 14.317 359.568,14.163 360.098,13.824 360.380 C 13.298 360.816,13.299 360.979,13.827 361.786 C 14.391 362.645,14.372 362.695,13.513 362.649 C 13.011 362.622,12.635 362.795,12.678 363.033 C 12.721 363.272,12.496 363.467,12.178 363.467 C 11.860 363.467,11.600 363.126,11.600 362.710 C 11.600 362.293,11.735 362.031,11.900 362.126 C 12.065 362.222,12.560 362.162,13.000 361.993 C 13.744 361.707,13.750 361.666,13.085 361.394 C 12.642 361.214,12.104 361.344,11.671 361.736 C 11.028 362.318,10.971 362.306,10.971 361.584 C 10.971 361.153,11.203 360.800,11.486 360.800 C 11.769 360.800,12.000 360.614,12.000 360.386 C 12.000 360.101,11.760 360.101,11.227 360.386 C 10.477 360.787,9.653 359.697,9.931 358.670 C 9.980 358.489,9.835 358.455,9.610 358.594 C 9.037 358.948,9.098 358.275,9.700 357.599 C 10.122 357.127,10.096 357.117,9.537 357.538 C 8.960 357.972,8.809 357.839,8.372 356.518 C 8.095 355.683,7.793 355.226,7.700 355.502 C 7.608 355.779,7.354 355.895,7.136 355.761 C 6.919 355.626,7.118 356.255,7.579 357.158 C 8.039 358.061,8.603 358.800,8.832 358.800 C 9.060 358.800,9.140 358.973,9.009 359.185 C 8.878 359.397,9.092 359.907,9.485 360.319 C 9.878 360.730,10.259 361.322,10.330 361.633 C 10.571 362.681,14.497 368.212,14.353 367.300 C 14.168 366.129,15.205 365.438,15.772 366.355 C 15.893 366.550,15.699 366.685,15.343 366.655 C 14.209 366.559,14.398 368.093,15.704 369.575 C 16.394 370.359,17.116 370.951,17.309 370.890 C 17.502 370.830,17.552 370.954,17.421 371.166 C 16.979 371.881,26.054 381.461,26.760 381.025 C 26.972 380.894,27.275 380.998,27.434 381.255 C 27.626 381.566,27.535 381.625,27.162 381.431 C 26.615 381.147,27.174 381.668,29.953 384.031 C 30.698 384.663,31.491 385.068,31.715 384.929 C 31.943 384.788,32.003 384.872,31.851 385.118 C 31.532 385.634,32.943 386.509,33.412 386.086 C 33.586 385.929,33.599 386.025,33.441 386.300 C 33.178 386.757,33.651 386.990,34.530 386.837 C 34.711 386.806,34.753 386.952,34.623 387.162 C 34.309 387.671,41.509 392.103,42.079 391.751 C 42.334 391.593,42.412 391.657,42.262 391.900 C 41.918 392.456,49.389 396.178,50.040 395.775 C 50.336 395.592,50.420 395.644,50.256 395.909 C 49.932 396.434,51.404 396.968,52.058 396.564 C 52.337 396.392,52.416 396.450,52.256 396.709 C 51.932 397.234,53.404 397.768,54.058 397.364 C 54.317 397.204,54.417 397.249,54.283 397.466 C 53.976 397.962,56.641 398.945,57.259 398.563 C 57.568 398.373,57.615 398.453,57.399 398.801 C 57.158 399.192,57.295 399.268,57.938 399.100 C 58.413 398.976,58.714 399.016,58.607 399.189 C 58.500 399.361,58.966 399.613,59.642 399.748 C 61.150 400.050,269.600 400.089,269.600 399.787 C 269.600 399.167,268.220 397.596,267.654 397.572 C 267.147 397.550,267.180 397.466,267.800 397.200 C 268.563 396.872,268.559 396.855,267.700 396.828 C 267.179 396.812,266.800 396.547,266.800 396.200 C 266.800 395.870,266.664 395.600,266.498 395.600 C 266.331 395.600,265.974 395.105,265.705 394.500 C 265.435 393.895,264.393 392.522,263.391 391.449 C 262.388 390.376,261.307 388.994,260.988 388.377 C 260.670 387.761,260.047 387.142,259.604 387.001 C 259.162 386.861,258.799 386.623,258.798 386.473 C 258.795 386.051,256.086 383.200,255.688 383.200 C 255.494 383.200,254.753 382.388,254.040 381.396 C 253.327 380.404,252.246 379.334,251.638 379.019 C 251.029 378.705,250.015 377.762,249.384 376.924 C 247.596 374.548,243.527 370.400,242.984 370.400 C 242.715 370.400,242.018 369.775,241.435 369.011 C 240.853 368.247,239.526 367.047,238.488 366.345 C 237.450 365.642,235.753 364.287,234.717 363.334 C 233.682 362.380,232.592 361.600,232.296 361.600 C 231.999 361.600,231.137 360.952,230.378 360.159 C 229.620 359.367,228.258 358.332,227.350 357.859 C 226.443 357.387,224.373 355.985,222.750 354.746 C 221.128 353.506,219.392 352.368,218.894 352.217 C 215.204 351.099,223.514 349.905,242.600 348.810 C 269.161 347.287,279.228 345.898,290.868 342.150 C 316.915 333.763,336.330 312.048,342.972 283.871 C 344.027 279.393,345.004 273.271,344.710 272.977 C 344.607 272.874,344.303 274.363,344.034 276.286 C 338.507 315.790,309.335 341.456,266.200 344.765 C 235.835 347.095,143.278 346.828,126.000 344.362 C 86.980 338.791,62.102 313.771,56.233 274.200 C 54.765 264.300,54.021 244.923,53.660 207.200 C 53.413 181.322,53.352 179.341,53.089 188.800 M274.914 193.000 C 274.917 194.100,274.995 194.503,275.087 193.895 C 275.179 193.286,275.177 192.386,275.082 191.895 C 274.987 191.403,274.911 191.900,274.914 193.000 M346.570 236.600 C 346.571 241.440,346.629 243.365,346.699 240.878 C 346.769 238.391,346.769 234.431,346.698 232.078 C 346.628 229.725,346.570 231.760,346.570 236.600 M346.148 252.000 C 346.148 254.310,346.214 255.255,346.295 254.100 C 346.376 252.945,346.376 251.055,346.295 249.900 C 346.214 248.745,346.148 249.690,346.148 252.000 M345.742 260.600 C 345.741 262.580,345.808 263.440,345.892 262.512 C 345.976 261.584,345.977 259.964,345.895 258.912 C 345.812 257.860,345.743 258.620,345.742 260.600 M345.324 267.000 C 345.326 268.320,345.401 268.812,345.490 268.093 C 345.579 267.374,345.577 266.294,345.486 265.693 C 345.395 265.092,345.322 265.680,345.324 267.000 M344.901 271.000 C 344.905 271.880,344.987 272.193,345.083 271.695 C 345.179 271.198,345.175 270.478,345.075 270.095 C 344.975 269.713,344.896 270.120,344.901 271.000 M2.606 345.591 C 2.100 346.409,3.395 348.129,3.983 347.420 C 4.441 346.868,4.414 346.820,3.787 347.060 C 3.215 347.280,3.117 347.193,3.326 346.649 C 3.505 346.183,3.440 346.052,3.127 346.245 C 2.818 346.436,2.749 346.310,2.919 345.866 C 3.197 345.141,2.994 344.963,2.606 345.591 M3.802 348.397 C 3.667 348.615,3.722 349.088,3.923 349.448 C 4.173 349.895,4.378 349.960,4.568 349.651 C 4.722 349.403,4.637 349.200,4.381 349.200 C 4.124 349.200,4.018 348.930,4.145 348.600 C 4.404 347.925,4.177 347.790,3.802 348.397 M5.010 351.184 C 4.875 351.402,5.016 352.061,5.323 352.648 C 5.680 353.329,5.984 353.549,6.165 353.257 C 6.320 353.006,6.273 352.800,6.061 352.800 C 5.849 352.800,5.764 352.460,5.872 352.045 C 6.088 351.222,5.407 350.542,5.010 351.184 M14.400 364.818 C 14.400 364.974,14.169 365.294,13.886 365.529 C 13.499 365.849,13.371 365.779,13.371 365.245 C 13.371 364.853,13.603 364.533,13.886 364.533 C 14.169 364.533,14.400 364.661,14.400 364.818 M16.800 367.998 C 16.800 368.165,16.485 368.543,16.100 368.838 C 15.715 369.133,15.529 369.221,15.686 369.034 C 15.843 368.848,15.801 368.376,15.593 367.987 C 15.279 367.400,15.350 367.314,16.007 367.486 C 16.443 367.600,16.800 367.830,16.800 367.998 " stroke="none" fill="#fcc464" fill-rule="evenodd"></path><path id="path3" d="M57.000 1.189 C 37.550 8.058,22.007 20.119,11.121 36.791 C 9.616 39.096,8.476 41.220,8.588 41.512 C 8.699 41.803,8.639 41.948,8.454 41.833 C 8.000 41.553,7.120 43.547,7.457 44.092 C 7.617 44.351,7.536 44.408,7.253 44.233 C 6.689 43.884,5.434 46.608,5.849 47.279 C 6.028 47.569,5.939 47.609,5.594 47.396 C 5.206 47.156,5.135 47.253,5.327 47.755 C 5.472 48.133,5.433 48.344,5.241 48.225 C 4.747 47.920,1.890 54.736,2.129 55.649 C 2.237 56.063,2.177 56.309,1.995 56.197 C 1.509 55.897,0.731 58.556,1.057 59.405 C 1.265 59.945,1.200 60.047,0.805 59.803 C 0.407 59.557,0.330 59.691,0.500 60.338 C 0.624 60.813,0.567 61.103,0.372 60.983 C 0.169 60.857,0.013 80.391,0.005 107.009 C -0.005 138.098,0.123 153.171,0.395 153.003 C 0.618 152.865,0.800 152.523,0.800 152.243 C 0.800 151.963,1.070 151.733,1.400 151.733 C 1.730 151.733,2.000 151.911,2.000 152.128 C 2.000 152.345,2.343 152.127,2.761 151.645 C 3.307 151.016,3.581 150.913,3.730 151.284 C 3.844 151.568,3.951 151.391,3.968 150.890 C 3.987 150.342,4.358 149.833,4.900 149.609 C 5.395 149.405,7.870 147.328,10.400 144.993 C 12.930 142.658,16.440 139.789,18.200 138.617 C 21.662 136.313,22.271 135.822,25.600 132.649 C 26.810 131.496,30.050 128.829,32.800 126.723 C 35.550 124.617,38.143 122.512,38.562 122.047 C 38.981 121.581,39.656 121.200,40.062 121.200 C 40.468 121.200,40.800 120.930,40.800 120.600 C 40.800 120.267,41.156 120.000,41.600 120.000 C 42.040 120.000,42.400 119.744,42.400 119.432 C 42.400 119.119,42.940 118.745,43.600 118.600 C 44.260 118.455,44.800 118.081,44.800 117.768 C 44.800 117.385,45.257 117.200,46.200 117.200 C 46.970 117.200,47.600 117.056,47.600 116.880 C 47.600 116.705,48.209 116.340,48.954 116.071 C 49.699 115.802,51.126 114.862,52.125 113.982 C 53.359 112.896,54.035 112.534,54.233 112.853 C 54.427 113.168,54.350 113.216,53.999 112.999 C 53.596 112.750,53.543 112.898,53.770 113.637 C 54.220 115.100,53.947 126.816,53.388 130.000 C 53.173 131.222,53.033 160.664,53.209 167.600 C 53.284 170.577,53.452 167.260,53.624 159.400 C 54.117 136.865,55.108 125.569,57.419 116.161 C 65.797 82.051,90.005 60.713,126.121 55.605 C 147.440 52.589,251.669 52.457,273.600 55.418 C 313.164 60.759,338.431 85.491,344.593 124.906 C 344.877 126.718,345.128 127.660,345.151 127.000 C 345.561 115.638,336.610 92.916,327.179 81.375 C 318.129 70.298,299.856 57.550,289.900 55.366 C 289.735 55.330,289.510 55.255,289.400 55.200 C 289.159 55.079,288.948 55.020,287.400 54.640 C 286.740 54.477,285.750 54.159,285.200 53.931 C 284.650 53.704,283.762 53.437,283.227 53.338 C 280.531 52.839,281.208 52.409,284.600 52.465 C 286.580 52.498,289.611 52.467,291.336 52.397 C 293.375 52.314,294.570 52.428,294.753 52.724 C 295.189 53.429,304.692 53.830,306.537 53.221 C 307.799 52.804,308.180 52.826,308.994 53.359 C 309.693 53.818,310.456 53.922,311.779 53.741 C 312.899 53.587,313.600 53.646,313.600 53.894 C 313.600 54.115,314.432 54.390,315.449 54.504 C 316.467 54.619,317.412 54.886,317.549 55.097 C 317.687 55.308,320.320 55.588,323.400 55.719 C 328.263 55.927,329.614 56.145,333.667 57.379 C 336.235 58.161,338.607 58.800,338.939 58.800 C 339.271 58.800,339.794 59.051,340.101 59.358 C 340.409 59.666,342.258 60.112,344.230 60.353 C 350.534 61.123,354.984 61.952,355.127 62.382 C 355.204 62.612,355.522 62.800,355.833 62.800 C 356.145 62.800,356.400 62.980,356.400 63.200 C 356.400 63.420,356.760 63.600,357.200 63.600 C 357.640 63.600,358.000 63.780,358.000 64.000 C 358.000 64.220,358.546 64.400,359.213 64.400 C 359.882 64.400,360.521 64.650,360.640 64.959 C 360.792 65.357,361.998 65.599,364.827 65.802 C 367.012 65.958,368.800 66.219,368.800 66.381 C 368.800 66.723,373.795 68.200,376.300 68.599 C 377.293 68.758,378.000 69.087,378.000 69.392 C 378.000 69.972,378.863 70.400,380.033 70.400 C 380.455 70.400,380.800 70.649,380.800 70.953 C 380.800 71.650,382.036 71.988,384.600 71.993 C 388.439 72.001,392.399 73.505,392.406 74.958 C 392.409 75.641,392.544 75.993,392.706 75.740 C 393.317 74.783,395.330 75.123,396.239 76.336 C 396.508 76.695,396.884 76.795,397.207 76.595 C 397.591 76.359,397.666 76.452,397.481 76.934 C 397.340 77.300,397.329 77.870,397.455 78.200 C 397.711 78.867,398.800 79.029,398.800 78.400 C 398.800 78.180,398.530 78.000,398.200 78.000 C 397.870 78.000,397.600 77.839,397.600 77.642 C 397.600 77.446,398.020 77.311,398.533 77.342 C 399.487 77.401,399.740 78.417,399.067 79.495 C 398.864 79.822,398.947 79.918,399.313 79.778 C 400.027 79.504,400.067 76.800,399.357 76.800 C 398.637 76.800,398.233 76.007,398.710 75.530 C 398.976 75.264,399.212 75.296,399.417 75.627 C 399.615 75.947,399.559 76.022,399.262 75.838 C 399.008 75.681,398.800 75.758,398.800 76.010 C 398.800 76.261,399.025 76.392,399.300 76.300 C 399.668 76.177,399.822 74.402,399.885 69.567 C 399.972 62.848,399.839 61.367,399.234 62.345 C 398.978 62.758,398.862 62.738,398.673 62.246 C 398.542 61.905,398.607 61.519,398.817 61.389 C 399.028 61.259,399.200 60.973,399.200 60.753 C 399.200 60.533,399.020 60.464,398.800 60.600 C 398.580 60.736,398.400 60.657,398.400 60.424 C 398.400 59.655,399.219 59.983,399.588 60.900 C 399.846 61.544,399.957 61.609,399.975 61.129 C 400.008 60.258,398.871 59.125,398.268 59.426 C 398.010 59.554,398.131 59.389,398.536 59.059 C 399.029 58.658,399.186 58.187,399.012 57.638 C 398.745 56.797,398.032 56.685,397.506 57.400 C 397.325 57.646,397.210 57.602,397.206 57.287 C 397.203 57.006,397.470 56.671,397.800 56.545 C 398.686 56.205,398.529 55.621,397.600 55.800 C 397.160 55.885,396.800 55.784,396.800 55.577 C 396.800 55.370,397.070 55.200,397.400 55.200 C 398.115 55.200,398.111 55.238,397.572 53.691 C 397.222 52.687,396.967 52.495,396.172 52.639 C 395.371 52.785,395.205 52.656,395.228 51.908 C 395.255 51.044,395.273 51.039,395.600 51.800 C 395.789 52.240,395.956 52.364,395.972 52.076 C 395.987 51.788,396.173 51.660,396.384 51.790 C 396.616 51.934,396.605 51.560,396.356 50.845 C 396.021 49.886,395.761 49.696,394.972 49.839 C 394.437 49.936,394.000 49.847,394.000 49.641 C 394.000 49.434,393.879 48.951,393.732 48.567 C 393.549 48.091,393.613 47.961,393.932 48.158 C 394.198 48.322,394.403 48.221,394.406 47.924 C 394.411 47.543,394.518 47.564,394.800 48.000 C 395.703 49.397,395.085 47.753,393.588 44.775 C 392.574 42.759,391.808 41.671,391.526 41.846 C 391.250 42.016,391.188 41.943,391.365 41.657 C 391.523 41.401,390.998 40.113,390.197 38.796 C 388.776 36.455,387.913 35.509,388.835 37.300 C 389.205 38.020,389.197 38.105,388.796 37.727 C 388.519 37.466,388.265 36.836,388.230 36.327 C 388.196 35.817,387.956 35.443,387.698 35.495 C 387.440 35.548,387.325 35.341,387.442 35.036 C 387.559 34.731,387.434 34.345,387.165 34.179 C 386.826 33.969,386.776 34.048,387.002 34.438 C 387.192 34.766,387.178 34.863,386.969 34.672 C 386.772 34.491,386.608 34.042,386.605 33.673 C 386.602 33.304,386.390 33.002,386.133 33.001 C 385.877 33.000,385.517 32.836,385.333 32.636 C 385.140 32.424,385.210 32.392,385.500 32.559 C 385.775 32.718,386.000 32.684,386.000 32.486 C 386.000 32.042,384.702 30.830,384.333 30.929 C 384.187 30.968,383.917 30.836,383.733 30.636 C 383.540 30.424,383.610 30.392,383.900 30.559 C 384.175 30.718,384.400 30.679,384.400 30.473 C 384.400 29.984,383.387 29.146,383.120 29.413 C 383.007 29.527,382.663 29.310,382.357 28.933 C 381.988 28.479,381.969 28.348,382.300 28.547 C 382.575 28.712,382.800 28.694,382.800 28.506 C 382.800 27.985,374.795 19.600,374.297 19.600 C 374.057 19.600,374.295 20.095,374.826 20.700 C 375.452 21.412,375.265 21.314,374.296 20.422 C 372.743 18.991,372.280 18.304,373.500 19.239 C 373.885 19.534,373.764 19.286,373.230 18.688 C 372.248 17.586,371.302 17.182,371.853 18.100 C 372.060 18.444,371.944 18.430,371.481 18.055 C 371.111 17.755,370.899 17.364,371.009 17.185 C 371.119 17.007,370.424 16.217,369.463 15.431 C 367.668 13.959,366.935 13.622,367.441 14.500 C 367.608 14.790,367.576 14.860,367.364 14.667 C 367.164 14.483,366.996 14.123,366.990 13.867 C 366.985 13.610,366.677 13.424,366.306 13.453 C 365.935 13.482,365.669 13.302,365.716 13.053 C 365.762 12.804,365.487 12.625,365.104 12.655 C 364.722 12.685,364.502 12.558,364.617 12.372 C 364.907 11.903,362.932 10.671,362.408 10.995 C 362.173 11.141,362.030 11.021,362.090 10.730 C 362.151 10.437,361.889 10.225,361.504 10.255 C 361.122 10.285,360.902 10.159,361.016 9.975 C 361.306 9.505,359.681 8.703,359.130 9.043 C 358.831 9.228,358.788 9.143,359.004 8.794 C 359.244 8.406,359.147 8.335,358.645 8.527 C 358.238 8.684,358.058 8.630,358.202 8.396 C 358.525 7.873,348.807 3.105,347.902 3.342 C 347.515 3.443,347.289 3.380,347.398 3.203 C 347.683 2.742,341.756 0.654,340.994 0.947 C 340.644 1.081,340.456 1.033,340.575 0.841 C 341.060 0.056,333.648 0.014,199.600 0.036 L 60.200 0.059 57.000 1.189 M380.284 26.166 L 381.800 27.799 380.374 26.492 C 379.589 25.774,378.850 25.283,378.731 25.403 C 378.612 25.522,378.311 25.375,378.063 25.076 C 376.921 23.699,378.892 24.667,380.284 26.166 M390.779 40.360 C 391.080 40.923,391.045 41.174,390.643 41.328 C 390.278 41.468,390.100 41.219,390.100 40.568 C 390.100 39.401,390.242 39.358,390.779 40.360 M392.300 44.070 C 391.956 44.289,392.050 44.392,392.600 44.400 C 393.250 44.410,393.289 44.482,392.812 44.784 C 392.054 45.263,391.928 45.111,391.760 43.516 C 391.630 42.282,391.658 42.248,392.210 42.976 C 392.673 43.586,392.692 43.821,392.300 44.070 M397.295 53.919 C 397.423 54.410,397.247 54.656,396.741 54.694 C 396.020 54.749,395.731 54.002,396.267 53.467 C 396.725 53.008,397.100 53.173,397.295 53.919 M146.200 80.451 C 120.825 81.447,107.817 85.745,96.781 96.781 C 85.493 108.069,80.025 125.629,80.459 149.200 C 80.485 150.630,80.743 148.327,81.032 144.083 C 83.651 105.613,98.773 87.964,132.998 83.435 C 153.368 80.739,249.781 80.172,269.000 82.634 C 290.105 85.338,304.141 94.317,312.284 110.321 C 313.481 112.674,314.336 114.150,314.183 113.600 C 312.811 108.662,306.149 99.050,301.103 94.728 C 289.453 84.748,277.813 81.452,250.558 80.413 C 237.998 79.935,158.628 79.964,146.200 80.451 M274.042 104.233 C 269.984 105.324,265.069 108.826,263.548 111.711 C 263.290 112.200,263.939 111.648,264.991 110.484 C 273.123 101.484,287.271 102.388,293.066 112.277 C 294.321 114.419,294.690 114.536,293.628 112.456 C 290.374 106.077,281.320 102.276,274.042 104.233 M314.661 115.600 C 315.117 117.402,316.052 119.603,315.784 118.244 C 315.659 117.608,315.298 116.528,314.982 115.844 C 314.551 114.908,314.471 114.848,314.661 115.600 M345.301 129.800 C 345.305 130.680,345.387 130.993,345.483 130.495 C 345.579 129.998,345.575 129.278,345.475 128.895 C 345.375 128.513,345.296 128.920,345.301 129.800 M345.724 134.600 C 345.726 135.920,345.801 136.412,345.890 135.693 C 345.979 134.974,345.977 133.894,345.886 133.293 C 345.795 132.692,345.722 133.280,345.724 134.600 M346.109 143.600 C 346.109 144.590,346.187 144.995,346.282 144.500 C 346.378 144.005,346.378 143.195,346.282 142.700 C 346.187 142.205,346.109 142.610,346.109 143.600 M80.137 157.800 C 80.139 159.560,80.209 160.230,80.293 159.289 C 80.378 158.349,80.377 156.909,80.291 156.089 C 80.205 155.270,80.136 156.040,80.137 157.800 M379.781 374.500 L 378.200 376.200 379.900 374.619 C 381.481 373.148,381.784 372.800,381.481 372.800 C 381.416 372.800,380.651 373.565,379.781 374.500 M374.175 380.100 L 373.000 381.400 374.300 380.225 C 375.015 379.579,375.600 378.994,375.600 378.925 C 375.600 378.616,375.270 378.888,374.175 380.100 " stroke="none" fill="#6555c9" fill-rule="evenodd"></path><path id="path4" d="M111.400 212.293 C 108.760 212.579,104.578 212.966,102.106 213.153 C 99.634 213.340,97.356 213.705,97.043 213.964 C 96.731 214.223,94.704 214.533,92.538 214.652 C 90.180 214.782,88.244 215.096,87.714 215.434 C 87.227 215.746,86.372 216.000,85.814 216.000 C 85.256 216.000,84.800 216.191,84.800 216.424 C 84.800 216.657,84.644 216.751,84.453 216.633 C 83.427 215.999,82.268 219.085,81.612 224.200 C 80.892 229.820,82.185 263.304,83.428 271.200 C 86.827 292.799,97.935 306.743,116.385 312.571 C 128.826 316.501,141.307 317.259,212.400 318.399 C 262.533 319.204,278.455 317.748,288.051 311.485 C 290.725 309.739,292.490 308.070,292.185 307.576 C 292.057 307.369,292.135 307.200,292.357 307.200 C 294.074 307.200,285.395 293.456,278.977 286.012 C 278.497 285.455,277.058 283.740,275.778 282.200 C 272.551 278.315,266.300 271.809,260.363 266.154 C 258.950 264.808,256.979 262.812,255.983 261.717 C 254.937 260.568,253.883 259.770,253.486 259.828 C 253.109 259.884,252.800 259.773,252.800 259.582 C 252.800 258.760,246.394 261.816,236.867 267.182 C 195.432 290.526,144.899 270.771,127.247 224.329 C 124.601 217.367,122.741 213.126,122.458 213.409 C 122.356 213.511,122.015 213.229,121.702 212.781 C 121.353 212.284,120.865 212.053,120.443 212.186 C 120.065 212.306,118.955 212.263,117.977 212.089 C 116.927 211.903,114.238 211.986,111.400 212.293 M158.350 215.390 C 158.322 215.505,158.275 215.735,158.244 215.900 C 158.213 216.065,158.051 216.415,157.884 216.678 C 156.982 218.096,159.649 225.156,162.623 229.224 C 175.466 246.791,206.910 253.535,220.427 241.623 C 221.182 240.957,221.935 240.410,222.100 240.406 C 222.265 240.403,222.400 239.965,222.400 239.433 C 222.400 238.350,221.860 237.966,216.200 235.020 C 214.220 233.990,211.790 232.633,210.800 232.005 C 209.810 231.377,208.570 230.849,208.044 230.831 C 207.518 230.814,206.348 230.461,205.444 230.048 C 204.540 229.634,202.540 228.895,201.000 228.405 C 198.483 227.605,197.106 227.088,194.600 225.998 C 194.160 225.807,193.395 225.537,192.900 225.398 C 192.405 225.260,192.000 224.978,192.000 224.773 C 192.000 224.568,191.775 224.401,191.500 224.403 C 191.225 224.405,189.560 223.796,187.800 223.051 C 184.014 221.446,180.023 220.134,177.800 219.763 C 176.920 219.616,176.020 219.364,175.800 219.203 C 175.580 219.042,174.320 218.796,173.000 218.658 C 171.680 218.519,169.880 218.142,169.000 217.820 C 168.120 217.498,166.824 217.227,166.120 217.218 C 164.324 217.193,160.808 216.409,159.500 215.741 C 158.895 215.432,158.378 215.274,158.350 215.390 M47.000 226.350 C 45.900 226.733,43.830 227.621,42.400 228.323 C 40.970 229.025,39.420 229.600,38.955 229.600 C 38.490 229.600,37.411 230.156,36.556 230.835 C 34.659 232.343,31.982 233.600,30.671 233.600 C 30.136 233.600,29.474 233.870,29.200 234.200 C 28.926 234.530,28.492 234.800,28.236 234.800 C 27.668 234.800,25.001 236.135,24.139 236.851 C 23.796 237.136,23.189 237.556,22.792 237.784 C 22.394 238.013,21.108 238.791,19.934 239.513 C 17.215 241.186,17.106 241.251,14.000 243.048 C 12.570 243.874,11.310 244.652,11.200 244.776 C 10.689 245.349,5.991 248.400,5.620 248.400 C 5.389 248.400,5.200 248.599,5.200 248.843 C 5.200 249.086,4.950 249.190,4.644 249.072 C 4.338 248.955,3.727 249.195,3.286 249.605 C 2.846 250.016,2.376 250.243,2.243 250.109 C 2.109 249.976,2.000 250.203,2.000 250.613 C 2.000 251.165,1.883 251.243,1.551 250.911 C -0.019 249.341,-0.007 249.006,0.004 294.463 C 0.011 325.630,0.137 337.963,0.447 337.771 C 0.745 337.587,0.740 337.765,0.430 338.344 C -0.231 339.580,0.289 341.389,1.112 340.711 C 1.659 340.260,1.674 340.307,1.243 341.115 C 0.560 342.397,1.031 343.837,1.899 343.121 C 2.459 342.659,2.478 342.699,2.065 343.474 C 1.442 344.644,1.478 344.999,2.164 344.430 C 2.502 344.149,2.823 344.113,2.962 344.339 C 3.090 344.546,2.926 344.819,2.598 344.946 C 2.269 345.072,2.000 345.383,2.000 345.636 C 2.000 345.950,2.213 345.922,2.665 345.549 C 3.267 345.053,3.286 345.084,2.864 345.877 C 2.233 347.060,3.033 349.037,3.863 348.348 C 4.493 347.825,4.596 348.444,3.981 349.059 C 3.321 349.719,4.358 351.733,5.058 351.152 C 5.786 350.547,6.303 351.872,5.594 352.527 C 5.187 352.903,5.140 352.837,5.365 352.200 C 5.578 351.598,5.534 351.513,5.187 351.857 C 4.524 352.514,5.439 354.147,6.287 353.822 C 6.797 353.626,6.823 353.690,6.429 354.165 C 6.051 354.620,6.050 354.947,6.425 355.647 C 6.872 356.483,6.940 356.497,7.414 355.849 C 7.871 355.223,7.970 355.298,8.398 356.595 C 8.809 357.840,8.960 357.966,9.501 357.518 C 10.064 357.053,10.071 357.093,9.568 357.900 C 9.260 358.395,8.860 358.800,8.680 358.800 C 8.500 358.800,8.481 358.592,8.638 358.338 C 8.827 358.033,8.746 357.986,8.401 358.199 C 7.987 358.456,8.014 358.621,8.533 359.001 C 8.893 359.264,9.055 359.625,8.894 359.804 C 8.732 359.982,8.828 359.997,9.107 359.836 C 9.385 359.676,9.517 359.390,9.400 359.200 C 9.283 359.010,9.340 358.761,9.527 358.645 C 9.714 358.530,9.875 358.652,9.886 358.918 C 9.896 359.183,10.035 359.715,10.195 360.100 C 10.375 360.532,10.307 360.800,10.019 360.800 C 9.763 360.800,9.681 360.592,9.838 360.338 C 10.015 360.052,9.948 359.985,9.661 360.162 C 9.330 360.367,9.317 360.670,9.613 361.224 C 10.063 362.065,10.461 362.264,10.300 361.568 C 10.245 361.330,10.605 360.858,11.100 360.519 C 11.666 360.132,12.000 360.069,12.000 360.351 C 12.000 360.598,11.719 360.800,11.376 360.800 C 11.033 360.800,10.869 360.988,11.011 361.218 C 11.153 361.447,11.028 361.942,10.734 362.318 C 10.261 362.922,10.275 362.941,10.853 362.490 C 11.626 361.887,12.238 362.802,11.534 363.506 C 11.262 363.778,11.276 364.000,11.575 364.185 C 11.828 364.341,11.972 364.230,11.910 363.930 C 11.849 363.638,12.025 363.445,12.300 363.500 C 12.575 363.555,12.755 363.375,12.700 363.100 C 12.641 362.807,12.977 362.620,13.513 362.649 C 14.372 362.695,14.391 362.645,13.827 361.786 C 13.299 360.979,13.298 360.816,13.824 360.380 C 14.163 360.098,14.317 359.568,14.182 359.144 C 14.052 358.735,14.138 358.400,14.373 358.400 C 14.608 358.400,14.800 358.119,14.800 357.776 C 14.800 357.433,14.980 357.264,15.200 357.400 C 15.420 357.536,15.600 357.367,15.600 357.024 C 15.600 356.681,15.772 356.400,15.982 356.400 C 16.192 356.400,16.803 355.961,17.339 355.424 C 17.876 354.888,18.399 354.532,18.501 354.634 C 18.603 354.736,18.914 354.545,19.192 354.210 C 19.470 353.874,20.104 353.600,20.600 353.600 C 21.096 353.600,21.726 353.330,22.000 353.000 C 22.274 352.670,22.643 352.400,22.821 352.400 C 22.998 352.400,24.220 351.685,25.536 350.811 C 27.598 349.441,31.949 347.200,32.546 347.200 C 32.654 347.200,33.791 346.578,35.071 345.818 C 36.352 345.059,39.085 343.788,41.145 342.995 C 43.205 342.202,46.085 340.945,47.545 340.200 C 50.280 338.807,58.259 336.002,59.501 335.998 C 59.885 335.996,60.654 335.758,61.209 335.468 C 63.022 334.522,72.458 331.420,74.800 331.001 C 80.024 330.065,80.000 329.904,73.354 321.137 C 57.464 300.178,53.167 284.654,52.167 244.600 C 51.873 232.822,50.720 225.447,49.200 225.629 C 49.090 225.642,48.100 225.967,47.000 226.350 M304.000 338.207 C 302.570 338.499,297.769 339.911,293.331 341.344 C 279.004 345.970,270.624 347.204,242.600 348.810 C 223.514 349.905,215.204 351.099,218.894 352.217 C 219.392 352.368,221.128 353.506,222.750 354.746 C 224.373 355.985,226.443 357.387,227.350 357.859 C 228.258 358.332,229.620 359.367,230.378 360.159 C 231.137 360.952,231.999 361.600,232.296 361.600 C 232.592 361.600,233.682 362.380,234.717 363.334 C 235.753 364.287,237.450 365.642,238.488 366.345 C 239.526 367.047,240.853 368.247,241.435 369.011 C 242.018 369.775,242.715 370.400,242.984 370.400 C 243.527 370.400,247.596 374.548,249.384 376.924 C 250.015 377.762,251.029 378.705,251.638 379.019 C 252.246 379.334,253.327 380.404,254.040 381.396 C 254.753 382.388,255.494 383.200,255.688 383.200 C 256.086 383.200,258.795 386.051,258.798 386.473 C 258.799 386.623,259.162 386.861,259.604 387.001 C 260.047 387.142,260.670 387.761,260.988 388.377 C 261.307 388.994,262.388 390.376,263.391 391.449 C 264.393 392.522,265.435 393.895,265.705 394.500 C 265.974 395.105,266.331 395.600,266.498 395.600 C 266.664 395.600,266.800 395.870,266.800 396.200 C 266.800 396.547,267.179 396.812,267.700 396.828 C 268.559 396.855,268.563 396.872,267.800 397.200 C 267.146 397.481,267.124 397.549,267.677 397.572 C 268.050 397.587,268.675 398.142,269.067 398.805 L 269.779 400.011 294.489 399.994 C 310.194 399.983,319.200 399.835,319.200 399.588 C 319.200 399.375,319.425 399.245,319.700 399.300 C 319.975 399.355,320.181 399.220,320.157 399.000 C 320.134 398.780,320.449 398.285,320.857 397.900 C 321.266 397.515,321.603 397.335,321.606 397.500 C 321.609 397.665,321.777 397.540,321.978 397.222 C 322.183 396.897,322.195 396.365,322.006 396.011 C 321.820 395.663,321.714 394.753,321.770 393.989 C 321.827 393.225,321.542 391.627,321.137 390.437 C 320.731 389.248,320.400 387.547,320.400 386.658 C 320.400 381.841,318.546 371.194,317.185 368.200 C 316.107 365.828,315.490 363.465,315.201 360.600 C 314.809 356.718,313.990 353.255,312.851 350.667 C 312.383 349.604,311.999 348.434,311.998 348.067 C 311.996 347.700,311.712 346.860,311.367 346.200 C 310.097 343.775,308.400 339.494,308.400 338.715 C 308.400 338.156,308.213 337.986,307.779 338.153 C 307.423 338.289,307.263 338.222,307.403 337.995 C 307.704 337.509,307.289 337.534,304.000 338.207 M399.049 341.015 C 398.912 341.373,398.815 341.966,398.834 342.333 C 398.853 342.700,399.027 342.469,399.221 341.820 C 399.598 340.558,399.465 339.933,399.049 341.015 M3.438 346.645 C 3.255 347.123,3.361 347.224,3.852 347.035 C 4.416 346.819,4.436 346.875,3.987 347.416 C 3.393 348.132,2.501 347.208,3.002 346.397 C 3.395 345.761,3.709 345.939,3.438 346.645 M396.865 347.417 C 396.195 348.888,396.323 349.202,397.047 347.865 C 397.386 347.240,397.588 346.654,397.496 346.563 C 397.405 346.471,397.121 346.856,396.865 347.417 M393.178 355.498 C 392.274 357.301,392.287 357.479,393.220 356.083 C 393.704 355.359,394.017 354.683,393.915 354.582 C 393.813 354.480,393.481 354.892,393.178 355.498 M391.108 359.300 C 390.233 360.649,389.448 362.256,389.887 361.800 C 390.448 361.217,392.098 358.400,391.879 358.400 C 391.776 358.400,391.429 358.805,391.108 359.300 M13.372 361.555 C 13.492 361.750,13.233 362.003,12.796 362.117 C 11.985 362.329,11.415 361.918,11.878 361.456 C 12.248 361.085,13.117 361.142,13.372 361.555 M388.493 363.500 C 387.457 364.996,387.121 365.600,387.323 365.600 C 387.417 365.600,387.970 364.880,388.553 364.000 C 389.736 362.212,389.684 361.779,388.493 363.500 M13.452 364.884 C 13.571 365.077,13.471 365.474,13.228 365.766 C 12.898 366.164,12.985 366.534,13.581 367.248 C 14.350 368.172,14.433 368.159,14.560 367.100 C 14.592 366.825,14.928 366.625,15.305 366.655 C 15.683 366.685,15.893 366.550,15.772 366.355 C 15.406 365.763,14.502 365.957,14.221 366.689 C 13.998 367.271,13.902 367.288,13.599 366.798 C 13.365 366.419,13.441 365.996,13.820 365.578 C 14.552 364.770,14.551 364.533,13.818 364.533 C 13.497 364.533,13.333 364.691,13.452 364.884 M385.800 367.489 C 383.572 370.253,383.124 371.010,384.788 369.200 C 386.267 367.592,387.424 366.000,387.114 366.000 C 387.051 366.000,386.460 366.670,385.800 367.489 M15.621 368.039 C 16.012 368.770,15.845 368.983,15.011 368.818 C 14.797 368.775,14.960 369.114,15.373 369.570 C 16.202 370.486,16.767 370.724,16.044 369.853 C 15.699 369.437,15.735 369.186,16.195 368.804 C 17.012 368.126,16.956 367.734,16.007 367.486 C 15.332 367.310,15.275 367.392,15.621 368.039 M18.545 371.904 C 18.579 372.331,18.368 372.549,18.000 372.467 C 17.614 372.381,17.746 372.702,18.370 373.367 C 19.362 374.424,20.016 374.799,19.299 373.900 C 19.080 373.625,18.965 373.004,19.045 372.520 C 19.124 372.036,19.032 371.543,18.840 371.424 C 18.647 371.306,18.515 371.522,18.545 371.904 M377.200 377.316 C 369.673 384.675,357.851 393.097,356.351 392.169 C 356.058 391.988,355.982 392.048,356.153 392.324 C 356.620 393.079,346.090 397.874,344.937 397.431 C 344.571 397.291,344.463 397.378,344.642 397.668 C 344.834 397.979,344.649 398.054,344.062 397.900 C 343.509 397.756,343.293 397.828,343.462 398.100 C 343.631 398.373,343.415 398.445,342.862 398.300 C 342.309 398.156,342.093 398.228,342.262 398.500 C 342.431 398.773,342.215 398.845,341.662 398.700 C 341.109 398.556,340.893 398.628,341.062 398.900 C 341.231 399.173,341.015 399.245,340.462 399.100 C 339.987 398.976,339.700 399.038,339.823 399.237 C 340.157 399.778,338.636 399.676,338.080 399.120 C 337.715 398.755,337.600 398.753,337.600 399.112 C 337.600 402.189,355.651 394.600,366.185 387.094 C 370.453 384.053,382.444 373.260,381.600 373.219 C 381.490 373.214,379.510 375.057,377.200 377.316 M26.370 381.335 C 27.516 382.594,27.560 382.609,27.426 381.700 C 27.370 381.315,27.161 380.997,26.962 380.994 C 26.763 380.991,26.330 380.826,26.000 380.629 C 25.670 380.432,25.836 380.750,26.370 381.335 " stroke="none" fill="#f57737" fill-rule="evenodd"></path></g></svg>