<svg id="svg" xmlns="http://www.w3.org/2000/svg" xmlns:xlink="http://www.w3.org/1999/xlink" width="400" height="400" viewBox="0, 0, 400,400"><g id="svgg"><path id="path0" d="M-0.000 14.224 C -0.000 28.618,0.162 30.044,1.345 26.059 C 4.453 15.594,15.027 4.985,25.895 1.425 C 29.842 0.132,28.758 -0.000,14.224 -0.000 L 0.000 0.000 -0.000 14.224 M371.794 0.390 C 371.926 0.604,372.891 1.033,373.937 1.344 C 384.672 4.532,395.324 15.184,398.793 26.200 C 399.865 29.606,400.000 28.277,400.000 14.280 L 400.000 0.000 385.776 0.000 C 376.649 0.000,371.639 0.140,371.794 0.390 M85.623 44.449 C 60.622 47.345,43.311 72.451,49.524 96.800 C 59.345 135.288,111.215 141.013,129.013 105.574 C 144.082 75.569,119.228 40.555,85.623 44.449 M275.000 144.057 C 265.548 144.395,259.524 145.404,251.436 148.004 C 241.425 151.223,235.009 155.294,226.740 163.676 C 220.233 170.272,219.775 170.087,219.517 160.763 C 219.289 152.513,217.600 149.340,212.468 147.521 C 209.605 146.505,161.855 146.789,159.596 147.835 C 157.297 148.899,155.299 150.897,154.235 153.196 L 153.400 155.000 153.400 251.400 L 153.400 347.800 154.348 349.897 C 157.124 356.037,157.220 356.054,187.452 355.915 C 215.392 355.785,213.788 355.969,216.788 352.553 C 219.601 349.349,219.375 354.015,219.636 293.800 C 219.879 238.049,219.878 238.068,221.449 232.400 C 227.499 210.568,238.218 200.994,256.600 201.003 C 274.378 201.012,284.828 210.356,288.806 229.800 C 290.266 236.938,290.387 241.908,290.394 294.827 C 290.401 352.494,290.251 349.305,293.095 352.453 C 296.299 355.999,294.425 355.785,323.349 355.914 C 354.423 356.053,354.122 356.105,357.075 350.092 L 358.200 347.800 358.330 307.200 C 358.583 228.394,357.434 210.744,350.739 190.600 C 339.651 157.242,315.823 142.599,275.000 144.057 M66.937 147.209 C 63.113 147.983,59.944 150.641,58.557 154.239 C 57.418 157.191,57.366 345.358,58.503 348.613 C 59.438 351.289,61.056 353.172,63.658 354.613 L 65.800 355.800 90.800 355.800 C 118.622 355.800,117.089 355.944,120.317 353.027 C 121.200 352.229,122.345 350.727,122.861 349.688 L 123.800 347.800 123.800 251.600 L 123.800 155.400 122.939 153.537 C 121.817 151.109,119.248 148.649,116.885 147.739 C 114.812 146.941,70.582 146.471,66.937 147.209 M-0.000 385.724 L 0.000 400.000 14.100 399.987 C 26.585 399.976,28.111 399.907,27.424 399.387 C 26.996 399.064,26.357 398.800,26.002 398.800 C 23.574 398.800,14.991 393.449,10.971 389.429 C 6.966 385.424,1.239 376.175,1.187 373.629 C 1.180 373.283,0.910 372.651,0.587 372.224 C 0.067 371.536,-0.000 373.085,-0.000 385.724 M399.264 372.619 C 399.009 373.179,398.800 373.859,398.800 374.130 C 398.800 376.510,392.630 386.132,388.767 389.775 C 384.691 393.620,376.209 398.800,373.988 398.800 C 373.639 398.800,373.004 399.064,372.576 399.387 C 371.889 399.907,373.415 399.976,385.900 399.987 L 400.000 400.000 400.000 385.800 C 400.000 377.990,399.939 371.600,399.864 371.600 C 399.790 371.600,399.520 372.058,399.264 372.619 " stroke="none" fill="#fbfbfb" fill-rule="evenodd"></path><path id="path1" d="M27.600 0.628 C 27.050 0.934,25.479 1.615,24.108 2.142 C 15.301 5.530,7.706 12.654,3.055 21.890 C 2.255 23.480,1.600 25.016,1.600 25.305 C 1.600 25.594,1.240 26.537,0.800 27.400 C -0.278 29.515,-0.489 370.801,0.587 372.224 C 0.910 372.651,1.180 373.283,1.187 373.629 C 1.239 376.175,6.966 385.424,10.971 389.429 C 14.991 393.449,23.574 398.800,26.002 398.800 C 26.357 398.800,26.996 399.064,27.424 399.387 C 28.601 400.278,371.399 400.278,372.576 399.387 C 373.004 399.064,373.639 398.800,373.988 398.800 C 374.933 398.800,380.066 396.255,383.171 394.246 C 390.009 389.822,395.691 382.536,398.940 374.022 L 399.789 371.800 399.895 200.242 C 399.956 103.081,399.851 28.492,399.653 28.242 C 399.461 27.999,399.076 27.080,398.797 26.200 C 396.531 19.057,390.315 10.687,384.189 6.530 C 381.536 4.728,375.509 1.600,374.693 1.600 C 374.405 1.600,373.463 1.240,372.600 0.800 C 370.541 -0.250,29.487 -0.419,27.600 0.628 M95.466 44.428 C 124.771 47.695,142.162 79.393,129.013 105.574 C 111.215 141.013,59.345 135.288,49.524 96.800 C 42.289 68.447,66.220 41.166,95.466 44.428 M293.400 144.429 C 321.785 147.077,341.567 163.006,350.739 190.600 C 357.434 210.744,358.583 228.394,358.330 307.200 L 358.200 347.800 357.075 350.092 C 354.122 356.105,354.423 356.053,323.349 355.914 C 294.425 355.785,296.299 355.999,293.095 352.453 C 290.251 349.305,290.401 352.494,290.394 294.827 C 290.387 241.908,290.266 236.938,288.806 229.800 C 284.828 210.356,274.378 201.012,256.600 201.003 C 238.218 200.994,227.499 210.568,221.449 232.400 C 219.878 238.068,219.879 238.049,219.636 293.800 C 219.375 354.015,219.601 349.349,216.788 352.553 C 213.788 355.969,215.392 355.785,187.452 355.915 C 157.220 356.054,157.124 356.037,154.348 349.897 L 153.400 347.800 153.400 251.400 L 153.400 155.000 154.235 153.196 C 155.299 150.897,157.297 148.899,159.596 147.835 C 161.855 146.789,209.605 146.505,212.468 147.521 C 217.600 149.340,219.289 152.513,219.517 160.763 C 219.775 170.087,220.233 170.272,226.740 163.676 C 242.655 147.544,263.203 141.612,293.400 144.429 M116.885 147.739 C 119.248 148.649,121.817 151.109,122.939 153.537 L 123.800 155.400 123.800 251.600 L 123.800 347.800 122.861 349.688 C 122.345 350.727,121.200 352.229,120.317 353.027 C 117.089 355.944,118.622 355.800,90.800 355.800 L 65.800 355.800 63.658 354.613 C 61.056 353.172,59.438 351.289,58.503 348.613 C 57.366 345.358,57.418 157.191,58.557 154.239 C 59.944 150.641,63.113 147.983,66.937 147.209 C 70.582 146.471,114.812 146.941,116.885 147.739 " stroke="none" fill="#0473b4" fill-rule="evenodd"></path></g></svg>