<svg id="svg" xmlns="http://www.w3.org/2000/svg" xmlns:xlink="http://www.w3.org/1999/xlink" width="400" height="278.0669144981413" viewBox="0, 0, 400,278.0669144981413"><g id="svgg"><path id="path0" d="M0.000 139.082 L 0.000 278.164 200.000 278.164 L 400.000 278.164 400.000 139.082 L 400.000 0.000 200.000 0.000 L 0.000 0.000 0.000 139.082 M252.295 1.924 C 264.413 2.498,273.446 2.820,284.423 3.067 C 290.947 3.215,297.554 3.511,299.861 3.760 C 302.079 4.000,307.662 4.297,312.268 4.420 C 316.873 4.544,320.770 4.725,320.928 4.823 C 321.507 5.180,325.166 5.574,330.459 5.848 C 333.442 6.002,336.885 6.322,338.108 6.559 C 339.332 6.797,342.149 7.167,344.367 7.383 C 346.586 7.599,349.194 8.028,350.164 8.338 C 351.134 8.648,352.483 8.901,353.163 8.901 C 353.854 8.901,355.125 9.207,356.050 9.597 C 356.959 9.979,357.988 10.293,358.337 10.293 C 358.685 10.294,359.722 10.669,360.640 11.127 C 361.558 11.584,362.499 11.959,362.731 11.960 C 362.963 11.961,363.614 12.274,364.177 12.656 C 364.739 13.039,365.373 13.352,365.584 13.352 C 365.935 13.352,366.990 13.970,369.695 15.758 C 370.239 16.118,370.797 16.412,370.936 16.412 C 371.075 16.412,371.507 16.728,371.895 17.115 C 372.283 17.501,373.540 18.583,374.687 19.519 C 378.081 22.287,382.158 26.640,383.727 29.171 C 383.880 29.418,384.287 29.975,384.631 30.409 C 384.976 30.842,385.257 31.356,385.257 31.550 C 385.257 31.744,385.503 32.125,385.803 32.397 C 386.103 32.668,386.499 33.345,386.682 33.900 C 386.864 34.455,387.237 35.223,387.510 35.605 C 387.782 35.987,388.139 36.818,388.302 37.450 C 388.466 38.083,388.776 38.747,388.993 38.927 C 389.209 39.106,389.470 39.778,389.573 40.419 C 389.675 41.061,390.045 42.211,390.395 42.976 C 390.745 43.741,391.122 45.114,391.232 46.026 C 391.342 46.938,391.675 48.301,391.971 49.054 C 392.268 49.807,392.623 51.564,392.760 52.958 C 392.896 54.353,393.248 56.182,393.541 57.024 C 393.852 57.919,394.144 59.743,394.244 61.424 C 394.339 63.003,394.660 65.319,394.960 66.570 C 395.271 67.872,395.635 70.929,395.811 73.713 C 395.980 76.391,396.294 79.395,396.508 80.389 C 396.723 81.384,397.034 85.139,397.199 88.734 C 397.364 92.330,397.617 96.335,397.760 97.636 C 397.903 98.936,398.144 101.189,398.296 102.643 C 399.362 112.853,399.163 170.118,398.025 180.529 C 397.733 183.206,397.365 188.088,397.207 191.377 C 397.049 194.666,396.678 198.860,396.382 200.695 C 396.086 202.531,395.769 205.473,395.677 207.232 C 395.586 208.992,395.261 211.545,394.956 212.907 C 394.650 214.269,394.286 216.710,394.147 218.332 C 394.008 219.953,393.692 221.843,393.446 222.531 C 393.200 223.220,392.880 224.933,392.736 226.340 C 392.591 227.746,392.235 229.435,391.945 230.095 C 391.654 230.754,391.326 232.106,391.214 233.099 C 391.101 234.106,390.723 235.447,390.360 236.131 C 390.001 236.805,389.708 237.697,389.708 238.112 C 389.708 238.528,389.464 239.179,389.165 239.558 C 388.866 239.938,388.435 240.791,388.207 241.454 C 387.978 242.117,387.607 242.762,387.381 242.889 C 387.155 243.015,386.889 243.485,386.791 243.932 C 386.693 244.380,386.423 244.903,386.193 245.094 C 385.962 245.286,385.527 245.889,385.227 246.435 C 384.927 246.980,384.306 247.928,383.848 248.540 C 383.390 249.152,382.800 249.965,382.538 250.348 C 381.529 251.817,374.859 258.155,372.877 259.527 C 372.324 259.910,371.385 260.598,370.791 261.057 C 369.483 262.066,367.326 263.421,367.028 263.421 C 366.909 263.421,366.423 263.718,365.948 264.080 C 365.473 264.442,364.688 264.826,364.203 264.932 C 363.718 265.039,363.172 265.305,362.990 265.525 C 362.808 265.744,362.076 266.096,361.363 266.308 C 360.650 266.520,359.633 266.958,359.102 267.281 C 358.571 267.605,357.898 267.870,357.607 267.871 C 357.316 267.872,356.439 268.173,355.660 268.541 C 354.880 268.908,353.491 269.302,352.573 269.415 C 351.655 269.528,350.216 269.860,349.374 270.152 C 348.533 270.444,346.467 270.803,344.784 270.948 C 343.102 271.094,340.911 271.406,339.917 271.641 C 338.922 271.877,336.168 272.185,333.797 272.326 C 331.426 272.468,328.734 272.698,327.816 272.839 C 323.215 273.544,321.079 273.720,313.769 273.996 C 309.409 274.161,304.465 274.475,302.782 274.693 C 300.846 274.944,294.611 275.192,285.814 275.369 C 278.164 275.522,268.338 275.869,263.978 276.141 C 253.862 276.770,150.488 276.893,137.830 276.290 C 133.853 276.100,126.280 275.814,121.001 275.653 C 103.504 275.119,96.707 274.827,92.350 274.425 C 89.979 274.205,85.661 273.944,82.754 273.845 C 79.847 273.745,76.718 273.546,75.800 273.402 C 72.573 272.897,66.598 272.324,64.534 272.321 C 63.387 272.320,61.406 272.069,60.133 271.764 C 58.860 271.459,56.473 271.091,54.827 270.946 C 53.109 270.796,51.248 270.452,50.456 270.140 C 49.697 269.841,48.329 269.505,47.417 269.393 C 46.504 269.282,45.320 268.973,44.784 268.706 C 44.249 268.439,43.097 268.015,42.226 267.765 C 41.354 267.514,40.569 267.193,40.482 267.052 C 40.395 266.911,39.654 266.601,38.835 266.363 C 38.017 266.125,37.197 265.750,37.013 265.528 C 36.829 265.307,36.281 265.039,35.794 264.933 C 35.308 264.827,34.556 264.443,34.123 264.081 C 33.691 263.718,33.206 263.421,33.047 263.421 C 32.685 263.421,30.645 262.164,29.209 261.057 C 28.615 260.598,27.670 259.910,27.109 259.527 C 23.810 257.274,16.078 249.428,14.637 246.871 C 14.378 246.412,13.797 245.473,13.345 244.784 C 12.893 244.096,12.282 243.014,11.987 242.381 C 11.692 241.748,11.318 241.148,11.157 241.048 C 10.995 240.948,10.687 240.273,10.471 239.548 C 10.256 238.823,9.815 237.735,9.491 237.130 C 9.166 236.525,8.901 235.640,8.901 235.164 C 8.901 234.687,8.606 233.741,8.244 233.062 C 7.857 232.334,7.504 231.047,7.385 229.930 C 7.273 228.887,6.941 227.335,6.647 226.481 C 6.353 225.626,5.993 223.606,5.847 221.991 C 5.702 220.376,5.328 218.148,5.016 217.041 C 4.679 215.839,4.451 214.194,4.451 212.958 C 4.451 210.710,4.097 207.653,3.482 204.590 C 3.267 203.519,3.013 200.515,2.918 197.914 C 2.822 195.313,2.556 191.370,2.326 189.152 C 0.811 174.548,0.730 104.727,2.213 91.035 C 2.507 88.316,2.831 83.839,2.931 81.085 C 3.032 78.331,3.237 75.515,3.387 74.826 C 3.953 72.223,4.188 70.398,4.447 66.620 C 4.594 64.478,4.910 62.100,5.150 61.335 C 5.390 60.570,5.714 58.593,5.870 56.940 C 6.026 55.288,6.341 53.410,6.569 52.768 C 6.797 52.125,7.157 50.450,7.370 49.044 C 7.582 47.639,7.945 46.123,8.177 45.674 C 8.409 45.226,8.724 44.084,8.876 43.137 C 9.029 42.190,9.396 41.015,9.693 40.527 C 9.989 40.038,10.317 39.237,10.420 38.747 C 10.524 38.257,10.832 37.569,11.105 37.218 C 11.378 36.866,11.750 36.124,11.931 35.569 C 12.112 35.014,12.506 34.337,12.806 34.066 C 13.106 33.794,13.352 33.455,13.352 33.313 C 13.352 31.731,22.952 21.487,27.104 18.637 C 27.662 18.255,28.538 17.629,29.053 17.246 C 29.568 16.864,30.405 16.300,30.913 15.994 C 33.645 14.351,34.440 13.897,35.322 13.475 C 35.855 13.220,36.592 12.776,36.959 12.487 C 37.327 12.198,37.842 11.961,38.105 11.961 C 38.367 11.961,39.142 11.663,39.827 11.299 C 40.512 10.935,41.723 10.497,42.519 10.327 C 43.315 10.156,44.248 9.831,44.593 9.605 C 44.938 9.379,46.095 9.070,47.164 8.919 C 48.234 8.767,49.669 8.439,50.354 8.190 C 51.039 7.941,53.289 7.556,55.355 7.335 C 57.420 7.113,59.798 6.756,60.640 6.541 C 61.481 6.327,63.734 6.070,65.647 5.971 C 67.559 5.872,71.287 5.489,73.931 5.120 C 76.868 4.711,80.062 4.451,82.142 4.451 C 86.328 4.451,93.193 4.036,98.192 3.480 C 100.416 3.233,107.390 2.943,115.299 2.768 C 122.643 2.605,131.092 2.347,134.075 2.194 C 148.638 1.447,237.930 1.243,252.295 1.924 M162.342 78.962 C 161.793 79.568,161.633 198.163,162.179 199.184 C 162.551 199.878,162.930 199.861,164.087 199.095 C 165.267 198.313,166.786 197.381,167.872 196.773 C 168.331 196.516,169.060 196.010,169.493 195.649 C 169.925 195.288,170.440 194.993,170.637 194.993 C 170.833 194.993,171.467 194.618,172.045 194.159 C 172.622 193.700,173.250 193.324,173.440 193.324 C 173.629 193.324,173.949 193.126,174.150 192.883 C 174.352 192.640,174.983 192.255,175.554 192.027 C 176.124 191.799,176.656 191.443,176.735 191.237 C 176.815 191.030,177.419 190.598,178.078 190.276 C 179.248 189.705,180.270 189.101,182.214 187.831 C 182.740 187.488,183.312 187.206,183.485 187.205 C 183.657 187.205,183.962 187.008,184.162 186.767 C 184.361 186.526,185.013 186.057,185.610 185.724 C 186.207 185.391,187.038 184.926,187.456 184.692 C 187.873 184.457,188.568 183.988,188.999 183.649 C 189.430 183.309,189.937 183.032,190.124 183.032 C 190.312 183.032,190.917 182.688,191.469 182.267 C 192.841 181.221,194.868 179.972,195.195 179.972 C 195.342 179.972,195.679 179.733,195.944 179.441 C 196.208 179.149,196.822 178.751,197.308 178.556 C 197.794 178.361,198.546 177.911,198.978 177.557 C 199.411 177.202,199.893 176.912,200.051 176.912 C 200.208 176.912,200.709 176.599,201.163 176.217 C 201.618 175.834,202.153 175.522,202.352 175.522 C 202.551 175.522,202.877 175.324,203.078 175.083 C 203.278 174.841,204.056 174.309,204.806 173.900 C 207.273 172.556,207.679 172.310,208.471 171.687 C 208.902 171.348,209.416 171.071,209.613 171.071 C 209.810 171.071,210.325 170.776,210.758 170.415 C 211.485 169.808,212.273 169.321,214.152 168.316 C 214.553 168.102,215.236 167.633,215.668 167.273 C 216.101 166.914,216.623 166.620,216.829 166.620 C 217.035 166.620,217.557 166.327,217.990 165.969 C 218.422 165.611,219.645 164.836,220.708 164.246 C 221.771 163.656,222.866 162.948,223.142 162.672 C 223.418 162.396,223.800 162.167,223.992 162.165 C 224.312 162.160,225.853 161.230,227.538 160.024 C 227.920 159.751,228.671 159.328,229.207 159.084 C 229.742 158.841,230.353 158.434,230.563 158.180 C 230.773 157.927,231.094 157.719,231.278 157.719 C 231.461 157.719,232.103 157.347,232.704 156.892 C 233.305 156.438,233.934 156.062,234.102 156.058 C 234.269 156.054,234.642 155.789,234.930 155.471 C 235.219 155.152,235.833 154.714,236.295 154.496 C 236.757 154.279,237.698 153.726,238.387 153.267 C 239.075 152.808,240.147 152.187,240.768 151.887 C 241.390 151.587,242.129 151.087,242.411 150.775 C 242.693 150.464,243.061 150.207,243.228 150.205 C 243.396 150.203,244.591 149.515,245.885 148.675 C 247.179 147.836,248.358 147.149,248.506 147.149 C 248.653 147.149,249.011 146.934,249.302 146.671 C 249.994 146.045,251.587 145.075,253.060 144.385 C 253.710 144.080,254.242 143.716,254.242 143.576 C 254.242 143.436,254.649 143.161,255.146 142.965 C 255.643 142.769,256.300 142.394,256.606 142.133 C 256.912 141.871,257.490 141.485,257.889 141.274 C 258.288 141.063,259.157 140.529,259.819 140.088 L 261.024 139.287 259.789 138.217 C 259.109 137.630,258.303 137.066,257.997 136.965 C 257.691 136.863,257.087 136.485,256.655 136.123 C 256.222 135.762,255.707 135.466,255.511 135.466 C 255.314 135.466,254.680 135.090,254.103 134.631 C 253.525 134.172,252.902 133.797,252.717 133.797 C 252.532 133.797,252.155 133.547,251.878 133.241 C 251.601 132.935,251.223 132.684,251.038 132.684 C 250.854 132.684,250.230 132.309,249.652 131.850 C 249.075 131.391,248.449 131.015,248.261 131.015 C 248.074 131.015,247.477 130.671,246.935 130.250 C 245.816 129.381,244.563 128.629,243.046 127.917 C 242.472 127.647,242.003 127.309,242.003 127.165 C 242.003 127.021,241.526 126.713,240.944 126.480 C 240.362 126.247,239.720 125.857,239.519 125.615 C 239.318 125.372,238.998 125.174,238.808 125.174 C 238.618 125.174,237.991 124.798,237.413 124.339 C 236.836 123.880,236.210 123.505,236.022 123.505 C 235.835 123.505,235.230 123.161,234.678 122.740 C 234.126 122.319,233.077 121.613,232.345 121.171 C 231.614 120.728,230.546 120.071,229.972 119.710 C 229.398 119.350,228.460 118.760,227.886 118.401 C 227.312 118.041,226.227 117.353,225.474 116.871 C 224.721 116.389,223.958 115.994,223.778 115.994 C 223.599 115.994,223.216 115.734,222.928 115.415 C 222.639 115.097,222.025 114.656,221.563 114.436 C 221.101 114.217,220.035 113.603,219.193 113.074 C 218.352 112.544,217.265 111.922,216.778 111.692 C 216.292 111.462,215.813 111.145,215.716 110.986 C 215.559 110.732,214.976 110.388,211.993 108.789 C 211.593 108.575,210.912 108.105,210.479 107.746 C 210.047 107.387,209.556 107.093,209.389 107.093 C 209.221 107.093,208.872 106.901,208.612 106.666 C 208.033 106.142,205.018 104.312,204.733 104.312 C 204.620 104.312,204.078 103.967,203.529 103.547 C 202.981 103.126,202.005 102.469,201.362 102.086 C 200.719 101.704,199.680 101.049,199.053 100.631 C 198.427 100.213,197.774 99.869,197.604 99.866 C 197.433 99.863,196.935 99.579,196.498 99.235 C 195.697 98.605,193.545 97.278,192.136 96.545 C 191.719 96.328,191.377 96.062,191.377 95.953 C 191.377 95.845,190.970 95.592,190.473 95.392 C 189.976 95.192,189.256 94.794,188.873 94.508 C 187.521 93.496,185.671 92.361,185.365 92.356 C 185.195 92.353,184.583 91.975,184.006 91.516 C 183.428 91.057,182.804 90.682,182.620 90.682 C 182.435 90.682,182.060 90.434,181.787 90.132 C 181.513 89.830,181.058 89.510,180.775 89.420 C 180.226 89.245,177.783 87.808,176.634 86.983 C 176.252 86.709,175.313 86.093,174.548 85.616 C 173.783 85.139,172.604 84.393,171.927 83.960 C 171.251 83.526,170.582 83.171,170.441 83.171 C 170.301 83.171,169.853 82.914,169.446 82.599 C 168.167 81.609,166.216 80.400,165.889 80.394 C 165.717 80.392,165.412 80.193,165.213 79.952 C 164.377 78.946,162.837 78.415,162.342 78.962 " stroke="none" fill="#fcf8f8" fill-rule="evenodd"></path><path id="path1" d="M152.434 1.682 C 145.320 1.810,137.058 2.041,134.075 2.194 C 131.092 2.347,122.643 2.605,115.299 2.768 C 107.390 2.943,100.416 3.233,98.192 3.480 C 93.193 4.036,86.328 4.451,82.142 4.451 C 80.062 4.451,76.868 4.711,73.931 5.120 C 71.287 5.489,67.559 5.872,65.647 5.971 C 63.734 6.070,61.481 6.327,60.640 6.541 C 59.798 6.756,57.420 7.113,55.355 7.335 C 53.289 7.556,51.039 7.941,50.354 8.190 C 49.669 8.439,48.234 8.767,47.164 8.919 C 46.095 9.070,44.938 9.379,44.593 9.605 C 44.248 9.831,43.315 10.156,42.519 10.327 C 41.723 10.497,40.512 10.935,39.827 11.299 C 39.142 11.663,38.367 11.961,38.105 11.961 C 37.842 11.961,37.327 12.198,36.959 12.487 C 36.592 12.776,35.855 13.220,35.322 13.475 C 34.440 13.897,33.645 14.351,30.913 15.994 C 30.405 16.300,29.568 16.864,29.053 17.246 C 28.538 17.629,27.662 18.255,27.104 18.637 C 22.952 21.487,13.352 31.731,13.352 33.313 C 13.352 33.455,13.106 33.794,12.806 34.066 C 12.506 34.337,12.112 35.014,11.931 35.569 C 11.750 36.124,11.378 36.866,11.105 37.218 C 10.832 37.569,10.524 38.257,10.420 38.747 C 10.317 39.237,9.989 40.038,9.693 40.527 C 9.396 41.015,9.029 42.190,8.876 43.137 C 8.724 44.084,8.409 45.226,8.177 45.674 C 7.945 46.123,7.582 47.639,7.370 49.044 C 7.157 50.450,6.797 52.125,6.569 52.768 C 6.341 53.410,6.026 55.288,5.870 56.940 C 5.714 58.593,5.390 60.570,5.150 61.335 C 4.910 62.100,4.594 64.478,4.447 66.620 C 4.188 70.398,3.953 72.223,3.387 74.826 C 3.237 75.515,3.032 78.331,2.931 81.085 C 2.831 83.839,2.507 88.316,2.213 91.035 C 0.730 104.727,0.811 174.548,2.326 189.152 C 2.556 191.370,2.822 195.313,2.918 197.914 C 3.013 200.515,3.267 203.519,3.482 204.590 C 4.097 207.653,4.451 210.710,4.451 212.958 C 4.451 214.194,4.679 215.839,5.016 217.041 C 5.328 218.148,5.702 220.376,5.847 221.991 C 5.993 223.606,6.353 225.626,6.647 226.481 C 6.941 227.335,7.273 228.887,7.385 229.930 C 7.504 231.047,7.857 232.334,8.244 233.062 C 8.606 233.741,8.901 234.687,8.901 235.164 C 8.901 235.640,9.166 236.525,9.491 237.130 C 9.815 237.735,10.256 238.823,10.471 239.548 C 10.687 240.273,10.995 240.948,11.157 241.048 C 11.318 241.148,11.692 241.748,11.987 242.381 C 12.282 243.014,12.893 244.096,13.345 244.784 C 13.797 245.473,14.378 246.412,14.637 246.871 C 16.078 249.428,23.810 257.274,27.109 259.527 C 27.670 259.910,28.615 260.598,29.209 261.057 C 30.645 262.164,32.685 263.421,33.047 263.421 C 33.206 263.421,33.691 263.718,34.123 264.081 C 34.556 264.443,35.308 264.827,35.794 264.933 C 36.281 265.039,36.829 265.307,37.013 265.528 C 37.197 265.750,38.017 266.125,38.835 266.363 C 39.654 266.601,40.395 266.911,40.482 267.052 C 40.569 267.193,41.354 267.514,42.226 267.765 C 43.097 268.015,44.249 268.439,44.784 268.706 C 45.320 268.973,46.504 269.282,47.417 269.393 C 48.329 269.505,49.697 269.841,50.456 270.140 C 51.248 270.452,53.109 270.796,54.827 270.946 C 56.473 271.091,58.860 271.459,60.133 271.764 C 61.406 272.069,63.387 272.320,64.534 272.321 C 66.598 272.324,72.573 272.897,75.800 273.402 C 76.718 273.546,79.847 273.745,82.754 273.845 C 85.661 273.944,89.979 274.205,92.350 274.425 C 96.707 274.827,103.504 275.119,121.001 275.653 C 126.280 275.814,133.853 276.100,137.830 276.290 C 150.488 276.893,253.862 276.770,263.978 276.141 C 268.338 275.869,278.164 275.522,285.814 275.369 C 294.611 275.192,300.846 274.944,302.782 274.693 C 304.465 274.475,309.409 274.161,313.769 273.996 C 321.079 273.720,323.215 273.544,327.816 272.839 C 328.734 272.698,331.426 272.468,333.797 272.326 C 336.168 272.185,338.922 271.877,339.917 271.641 C 340.911 271.406,343.102 271.094,344.784 270.948 C 346.467 270.803,348.533 270.444,349.374 270.152 C 350.216 269.860,351.655 269.528,352.573 269.415 C 353.491 269.302,354.880 268.908,355.660 268.541 C 356.439 268.173,357.316 267.872,357.607 267.871 C 357.898 267.870,358.571 267.605,359.102 267.281 C 359.633 266.958,360.650 266.520,361.363 266.308 C 362.076 266.096,362.808 265.744,362.990 265.525 C 363.172 265.305,363.718 265.039,364.203 264.932 C 364.688 264.826,365.473 264.442,365.948 264.080 C 366.423 263.718,366.909 263.421,367.028 263.421 C 367.326 263.421,369.483 262.066,370.791 261.057 C 371.385 260.598,372.324 259.910,372.877 259.527 C 374.859 258.155,381.529 251.817,382.538 250.348 C 382.800 249.965,383.390 249.152,383.848 248.540 C 384.306 247.928,384.927 246.980,385.227 246.435 C 385.527 245.889,385.962 245.286,386.193 245.094 C 386.423 244.903,386.693 244.380,386.791 243.932 C 386.889 243.485,387.155 243.015,387.381 242.889 C 387.607 242.762,387.978 242.117,388.207 241.454 C 388.435 240.791,388.866 239.938,389.165 239.558 C 389.464 239.179,389.708 238.528,389.708 238.112 C 389.708 237.697,390.001 236.805,390.360 236.131 C 390.723 235.447,391.101 234.106,391.214 233.099 C 391.326 232.106,391.654 230.754,391.945 230.095 C 392.235 229.435,392.591 227.746,392.736 226.340 C 392.880 224.933,393.200 223.220,393.446 222.531 C 393.692 221.843,394.008 219.953,394.147 218.332 C 394.286 216.710,394.650 214.269,394.956 212.907 C 395.261 211.545,395.586 208.992,395.677 207.232 C 395.769 205.473,396.086 202.531,396.382 200.695 C 396.678 198.860,397.049 194.666,397.207 191.377 C 397.365 188.088,397.733 183.206,398.025 180.529 C 399.163 170.118,399.362 112.853,398.296 102.643 C 398.144 101.189,397.903 98.936,397.760 97.636 C 397.617 96.335,397.364 92.330,397.199 88.734 C 397.034 85.139,396.723 81.384,396.508 80.389 C 396.294 79.395,395.980 76.391,395.811 73.713 C 395.635 70.929,395.271 67.872,394.960 66.570 C 394.660 65.319,394.339 63.003,394.244 61.424 C 394.144 59.743,393.852 57.919,393.541 57.024 C 393.248 56.182,392.896 54.353,392.760 52.958 C 392.623 51.564,392.268 49.807,391.971 49.054 C 391.675 48.301,391.342 46.938,391.232 46.026 C 391.122 45.114,390.745 43.741,390.395 42.976 C 390.045 42.211,389.675 41.061,389.573 40.419 C 389.470 39.778,389.209 39.106,388.993 38.927 C 388.776 38.747,388.466 38.083,388.302 37.450 C 388.139 36.818,387.782 35.987,387.510 35.605 C 387.237 35.223,386.864 34.455,386.682 33.900 C 386.499 33.345,386.103 32.668,385.803 32.397 C 385.503 32.125,385.257 31.744,385.257 31.550 C 385.257 31.356,384.976 30.842,384.631 30.409 C 384.287 29.975,383.880 29.418,383.727 29.171 C 382.158 26.640,378.081 22.287,374.687 19.519 C 373.540 18.583,372.283 17.501,371.895 17.115 C 371.507 16.728,371.075 16.412,370.936 16.412 C 370.797 16.412,370.239 16.118,369.695 15.758 C 366.990 13.970,365.935 13.352,365.584 13.352 C 365.373 13.352,364.739 13.039,364.177 12.656 C 363.614 12.274,362.963 11.961,362.731 11.960 C 362.499 11.959,361.558 11.584,360.640 11.127 C 359.722 10.669,358.685 10.294,358.337 10.293 C 357.988 10.293,356.959 9.979,356.050 9.597 C 355.125 9.207,353.854 8.901,353.163 8.901 C 352.483 8.901,351.134 8.648,350.164 8.338 C 349.194 8.028,346.586 7.599,344.367 7.383 C 342.149 7.167,339.332 6.797,338.108 6.559 C 336.885 6.322,333.442 6.002,330.459 5.848 C 325.166 5.574,321.507 5.180,320.928 4.823 C 320.770 4.725,316.873 4.544,312.268 4.420 C 307.662 4.297,302.079 4.000,299.861 3.760 C 297.554 3.511,290.947 3.215,284.423 3.067 C 273.446 2.820,264.413 2.498,252.295 1.924 C 244.766 1.567,168.940 1.383,152.434 1.682 M165.213 79.952 C 165.412 80.193,165.717 80.392,165.889 80.394 C 166.216 80.400,168.167 81.609,169.446 82.599 C 169.853 82.914,170.301 83.171,170.441 83.171 C 170.582 83.171,171.251 83.526,171.927 83.960 C 172.604 84.393,173.783 85.139,174.548 85.616 C 175.313 86.093,176.252 86.709,176.634 86.983 C 177.783 87.808,180.226 89.245,180.775 89.420 C 181.058 89.510,181.513 89.830,181.787 90.132 C 182.060 90.434,182.435 90.682,182.620 90.682 C 182.804 90.682,183.428 91.057,184.006 91.516 C 184.583 91.975,185.195 92.353,185.365 92.356 C 185.671 92.361,187.521 93.496,188.873 94.508 C 189.256 94.794,189.976 95.192,190.473 95.392 C 190.970 95.592,191.377 95.845,191.377 95.953 C 191.377 96.062,191.719 96.328,192.136 96.545 C 193.545 97.278,195.697 98.605,196.498 99.235 C 196.935 99.579,197.433 99.863,197.604 99.866 C 197.774 99.869,198.427 100.213,199.053 100.631 C 199.680 101.049,200.719 101.704,201.362 102.086 C 202.005 102.469,202.981 103.126,203.529 103.547 C 204.078 103.967,204.620 104.312,204.733 104.312 C 205.018 104.312,208.033 106.142,208.612 106.666 C 208.872 106.901,209.221 107.093,209.389 107.093 C 209.556 107.093,210.047 107.387,210.479 107.746 C 210.912 108.105,211.593 108.575,211.993 108.789 C 214.976 110.388,215.559 110.732,215.716 110.986 C 215.813 111.145,216.292 111.462,216.778 111.692 C 217.265 111.922,218.352 112.544,219.193 113.074 C 220.035 113.603,221.101 114.217,221.563 114.436 C 222.025 114.656,222.639 115.097,222.928 115.415 C 223.216 115.734,223.599 115.994,223.778 115.994 C 223.958 115.994,224.721 116.389,225.474 116.871 C 226.227 117.353,227.312 118.041,227.886 118.401 C 228.460 118.760,229.398 119.350,229.972 119.710 C 230.546 120.071,231.614 120.728,232.345 121.171 C 233.077 121.613,234.126 122.319,234.678 122.740 C 235.230 123.161,235.835 123.505,236.022 123.505 C 236.210 123.505,236.836 123.880,237.413 124.339 C 237.991 124.798,238.618 125.174,238.808 125.174 C 238.998 125.174,239.318 125.372,239.519 125.615 C 239.720 125.857,240.362 126.247,240.944 126.480 C 241.526 126.713,242.003 127.021,242.003 127.165 C 242.003 127.309,242.472 127.647,243.046 127.917 C 244.563 128.629,245.816 129.381,246.935 130.250 C 247.477 130.671,248.074 131.015,248.261 131.015 C 248.449 131.015,249.075 131.391,249.652 131.850 C 250.230 132.309,250.854 132.684,251.038 132.684 C 251.223 132.684,251.601 132.935,251.878 133.241 C 252.155 133.547,252.532 133.797,252.717 133.797 C 252.902 133.797,253.525 134.172,254.103 134.631 C 254.680 135.090,255.314 135.466,255.511 135.466 C 255.707 135.466,256.222 135.762,256.655 136.123 C 257.087 136.485,257.691 136.863,257.997 136.965 C 258.303 137.066,259.109 137.630,259.789 138.217 L 261.024 139.287 259.819 140.088 C 259.157 140.529,258.288 141.063,257.889 141.274 C 257.490 141.485,256.912 141.871,256.606 142.133 C 256.300 142.394,255.643 142.769,255.146 142.965 C 254.649 143.161,254.242 143.436,254.242 143.576 C 254.242 143.716,253.710 144.080,253.060 144.385 C 251.587 145.075,249.994 146.045,249.302 146.671 C 249.011 146.934,248.653 147.149,248.506 147.149 C 248.358 147.149,247.179 147.836,245.885 148.675 C 244.591 149.515,243.396 150.203,243.228 150.205 C 243.061 150.207,242.693 150.464,242.411 150.775 C 242.129 151.087,241.390 151.587,240.768 151.887 C 240.147 152.187,239.075 152.808,238.387 153.267 C 237.698 153.726,236.757 154.279,236.295 154.496 C 235.833 154.714,235.219 155.152,234.930 155.471 C 234.642 155.789,234.269 156.054,234.102 156.058 C 233.934 156.062,233.305 156.438,232.704 156.892 C 232.103 157.347,231.461 157.719,231.278 157.719 C 231.094 157.719,230.773 157.927,230.563 158.180 C 230.353 158.434,229.742 158.841,229.207 159.084 C 228.671 159.328,227.920 159.751,227.538 160.024 C 225.853 161.230,224.312 162.160,223.992 162.165 C 223.800 162.167,223.418 162.396,223.142 162.672 C 222.866 162.948,221.771 163.656,220.708 164.246 C 219.645 164.836,218.422 165.611,217.990 165.969 C 217.557 166.327,217.035 166.620,216.829 166.620 C 216.623 166.620,216.101 166.914,215.668 167.273 C 215.236 167.633,214.553 168.102,214.152 168.316 C 212.273 169.321,211.485 169.808,210.758 170.415 C 210.325 170.776,209.810 171.071,209.613 171.071 C 209.416 171.071,208.902 171.348,208.471 171.687 C 207.679 172.310,207.273 172.556,204.806 173.900 C 204.056 174.309,203.278 174.841,203.078 175.083 C 202.877 175.324,202.551 175.522,202.352 175.522 C 202.153 175.522,201.618 175.834,201.163 176.217 C 200.709 176.599,200.208 176.912,200.051 176.912 C 199.893 176.912,199.411 177.202,198.978 177.557 C 198.546 177.911,197.794 178.361,197.308 178.556 C 196.822 178.751,196.208 179.149,195.944 179.441 C 195.679 179.733,195.342 179.972,195.195 179.972 C 194.868 179.972,192.841 181.221,191.469 182.267 C 190.917 182.688,190.312 183.032,190.124 183.032 C 189.937 183.032,189.430 183.309,188.999 183.649 C 188.568 183.988,187.873 184.457,187.456 184.692 C 187.038 184.926,186.207 185.391,185.610 185.724 C 185.013 186.057,184.361 186.526,184.162 186.767 C 183.962 187.008,183.657 187.205,183.485 187.205 C 183.312 187.206,182.740 187.488,182.214 187.831 C 180.270 189.101,179.248 189.705,178.078 190.276 C 177.419 190.598,176.815 191.030,176.735 191.237 C 176.656 191.443,176.124 191.799,175.554 192.027 C 174.983 192.255,174.352 192.640,174.150 192.883 C 173.949 193.126,173.629 193.324,173.440 193.324 C 173.250 193.324,172.622 193.700,172.045 194.159 C 171.467 194.618,170.833 194.993,170.637 194.993 C 170.440 194.993,169.925 195.288,169.493 195.649 C 169.060 196.010,168.331 196.516,167.872 196.773 C 166.786 197.381,165.267 198.313,164.087 199.095 C 162.930 199.861,162.551 199.878,162.179 199.184 C 161.633 198.163,161.793 79.568,162.342 78.962 C 162.837 78.415,164.377 78.946,165.213 79.952 " stroke="none" fill="#fc0404" fill-rule="evenodd"></path></g></svg>